<svg width="25" height="24" viewBox="0 0 25 24" fill="none" xmlns="http://www.w3.org/2000/svg">
<path d="M24.2755 11.7068C24.2755 11.7349 24.2755 11.7624 24.2747 11.7905V11.8583C24.1933 18.254 18.9835 23.4143 12.5688 23.4143C11.8497 23.4143 11.1467 23.3488 10.4635 23.2254C9.3972 23.0327 8.3819 22.6937 7.4382 22.2329C5.54471 21.3083 3.93836 19.8878 2.78672 18.1405C1.92528 16.8335 1.31824 15.3437 1.03795 13.7412C0.931315 13.1288 0.870379 12.4996 0.862762 11.8583V11.7905C0.862 11.7624 0.862 11.7349 0.862 11.7068C0.862 5.24176 6.10224 0 12.568 0C13.8384 0 15.0609 0.202603 16.2072 0.576579C17.7443 1.07928 19.1419 1.89121 20.3255 2.93926C21.9045 4.33691 23.1033 6.15423 23.7469 8.21682C24.0584 9.21383 24.239 10.2687 24.2702 11.3602C24.274 11.4752 24.2755 11.591 24.2755 11.7068Z" fill="#787878"/>
<path d="M24.2747 12.2932C24.2747 18.759 19.0337 24 12.568 24C6.10224 24 0.862 18.759 0.862 12.2932C0.862 5.82749 6.103 0.586487 12.568 0.586487C19.033 0.586487 24.2747 5.82825 24.2747 12.2932Z" fill="#474747"/>
<path d="M24.2755 11.9413C24.2755 18.4063 19.0345 23.6473 12.5688 23.6473C11.7721 23.6473 10.9936 23.5674 10.2419 23.4158C9.1923 23.2041 8.19301 22.8522 7.26607 22.3799C5.39466 21.4271 3.81192 19.986 2.68999 18.2243C1.84454 16.8975 1.25807 15.3886 1.00444 13.7693C0.909993 13.1737 0.862 12.5629 0.862 11.9413C0.862 11.9132 0.862 11.8857 0.862762 11.8576V11.7898C0.94426 5.39333 6.15327 0.233826 12.568 0.233826C13.7661 0.233826 14.9215 0.413578 16.0092 0.747948C17.5668 1.22627 18.985 2.02069 20.1907 3.05579C21.7879 4.42754 23.0119 6.22278 23.6867 8.26709C24.0112 9.24963 24.2093 10.2893 24.2618 11.3671C24.2679 11.5072 24.2732 11.6481 24.2747 11.7898V11.8576C24.2755 11.8857 24.2755 11.9132 24.2755 11.9413Z" fill="url(#paint0_linear_0_625)"/>
<path d="M23.392 11.965C23.392 17.9463 18.5425 22.7966 12.5604 22.7966C6.57829 22.7966 1.72878 17.9471 1.72878 11.965C1.72878 5.98287 6.57829 1.1326 12.5604 1.1326C18.5425 1.1326 23.392 5.98211 23.392 11.965Z" fill="url(#paint1_linear_0_625)"/>
<path d="M23.1787 11.9566C23.1787 17.8092 18.4351 22.5513 12.584 22.5513C6.73289 22.5513 1.98927 17.8084 1.98927 11.9566C1.98927 6.10473 6.73289 1.36261 12.584 1.36261C18.4351 1.36261 23.1787 6.10549 23.1787 11.9566Z" fill="url(#paint2_linear_0_625)"/>
<path d="M12.9816 2.24387C12.9816 2.41524 12.843 2.55386 12.6716 2.55386C12.5002 2.55386 12.3616 2.41524 12.3616 2.24387C12.3616 2.07249 12.5002 1.93387 12.6716 1.93387C12.843 1.93387 12.9816 2.07249 12.9816 2.24387Z" fill="#474747"/>
<path d="M13.0128 2.16464C13.0128 2.33601 12.8742 2.47464 12.7028 2.47464C12.5314 2.47464 12.3928 2.33601 12.3928 2.16464C12.3928 1.99327 12.5314 1.85464 12.7028 1.85464C12.8742 1.85464 13.0128 1.99327 13.0128 2.16464Z" fill="#E6E7E8"/>
<path d="M12.9976 2.20425C12.9976 2.37563 12.859 2.51425 12.6876 2.51425C12.5162 2.51425 12.3776 2.37563 12.3776 2.20425C12.3776 2.03288 12.5162 1.89426 12.6876 1.89426C12.859 1.89426 12.9976 2.03288 12.9976 2.20425Z" fill="#898989"/>
<path d="M11.4499 2.29946C11.4765 2.46855 11.3615 2.62774 11.1924 2.65439C11.0234 2.68105 10.8642 2.56604 10.8375 2.39695C10.8108 2.22786 10.9259 2.06867 11.095 2.04202C11.264 2.01536 11.4232 2.13037 11.4499 2.29946Z" fill="#474747"/>
<path d="M11.4689 2.21645C11.4956 2.38554 11.3806 2.54473 11.2115 2.57139C11.0424 2.59804 10.8832 2.48303 10.8565 2.31394C10.8299 2.14485 10.9449 1.98567 11.114 1.95901C11.2831 1.93235 11.4423 2.04736 11.4689 2.21645Z" fill="#E6E7E8"/>
<path d="M11.4598 2.25759C11.4864 2.42668 11.3714 2.58586 11.2023 2.61252C11.0333 2.63918 10.8741 2.52417 10.8474 2.35508C10.8208 2.18599 10.9358 2.0268 11.1048 2.00015C11.2739 1.97349 11.4331 2.0885 11.4598 2.25759Z" fill="#898989"/>
<path d="M9.94635 2.59421C9.99967 2.75721 9.90979 2.93239 9.74755 2.98494C9.58456 3.03826 9.40938 2.94838 9.35683 2.78615C9.30351 2.62315 9.39338 2.44797 9.55561 2.39542C9.71861 2.3421 9.89304 2.43198 9.94635 2.59421Z" fill="#474747"/>
<path d="M9.95245 2.50814C10.005 2.67113 9.91588 2.84631 9.75365 2.89887C9.59065 2.95142 9.41548 2.86231 9.36292 2.70007C9.30961 2.53708 9.39947 2.3619 9.56171 2.30934C9.7247 2.25679 9.89989 2.3459 9.95245 2.50814Z" fill="#E6E7E8"/>
<path d="M9.94941 2.55156C10.0027 2.71456 9.91284 2.88974 9.75061 2.9423C9.58761 2.99485 9.4132 2.90574 9.35988 2.7435C9.30733 2.58051 9.39567 2.40609 9.55867 2.35277C9.72166 2.30021 9.89685 2.38933 9.94941 2.55156Z" fill="#898989"/>
<path d="M8.50758 3.11976C8.58527 3.27209 8.52433 3.45946 8.372 3.53715C8.21967 3.61484 8.0323 3.55391 7.95537 3.40158C7.87768 3.24925 7.9386 3.06264 8.09093 2.98419C8.24327 2.9065 8.43063 2.96743 8.50832 3.11976H8.50758Z" fill="#474747"/>
<path d="M8.49997 3.03446C8.57766 3.1868 8.51672 3.37417 8.36439 3.45186C8.21206 3.52955 8.02469 3.46861 7.947 3.31628C7.86931 3.16395 7.93025 2.97734 8.08258 2.89889C8.23491 2.8212 8.42228 2.88213 8.49997 3.03446Z" fill="#E6E7E8"/>
<path d="M8.50378 3.07713C8.58147 3.22946 8.52054 3.41683 8.3682 3.49452C8.21587 3.57221 8.0285 3.51128 7.95081 3.35894C7.87312 3.20661 7.93406 3.02 8.08639 2.94155C8.23873 2.86386 8.42609 2.9248 8.50378 3.07713Z" fill="#898989"/>
<path d="M7.16781 3.86466C7.26835 4.00328 7.23787 4.1975 7.09925 4.29804C6.96063 4.39858 6.76641 4.36812 6.66587 4.22949C6.56533 4.09087 6.59581 3.89741 6.73443 3.79611C6.87305 3.69557 7.06651 3.72603 7.16781 3.86466Z" fill="#474747"/>
<path d="M7.14724 3.78165C7.24778 3.92027 7.21732 4.11373 7.0787 4.21503C6.94008 4.31557 6.74584 4.28511 6.6453 4.14649C6.54476 4.00786 6.57524 3.81364 6.71386 3.7131C6.85248 3.61256 7.0467 3.64303 7.14724 3.78165Z" fill="#E6E7E8"/>
<path d="M7.1579 3.82279C7.25844 3.96141 7.22798 4.15563 7.08936 4.25617C6.95074 4.35671 6.75652 4.32625 6.65598 4.18762C6.55544 4.049 6.5859 3.85554 6.72452 3.75424C6.86315 3.6537 7.0566 3.68416 7.1579 3.82279Z" fill="#898989"/>
<path d="M5.9621 4.80915C6.08321 4.93026 6.08321 5.12677 5.9621 5.24787C5.841 5.36897 5.64449 5.36897 5.52338 5.24787C5.40228 5.12677 5.40228 4.93026 5.52338 4.80915C5.64449 4.68805 5.841 4.68805 5.9621 4.80915Z" fill="#474747"/>
<path d="M5.92859 4.73069C6.0497 4.85179 6.0497 5.0483 5.92859 5.16941C5.80749 5.29051 5.61098 5.29051 5.48988 5.16941C5.36877 5.0483 5.36877 4.85179 5.48988 4.73069C5.61098 4.60959 5.80749 4.60959 5.92859 4.73069Z" fill="#E6E7E8"/>
<path d="M5.94535 4.7703C6.06645 4.89141 6.06645 5.08791 5.94535 5.20902C5.82424 5.33012 5.62773 5.33012 5.50663 5.20902C5.38553 5.08791 5.38553 4.89141 5.50663 4.7703C5.62773 4.6492 5.82424 4.6492 5.94535 4.7703Z" fill="#898989"/>
<path d="M4.91862 5.93106C5.05725 6.0316 5.08771 6.22582 4.98717 6.36444C4.88663 6.50306 4.69241 6.53353 4.55378 6.43299C4.41516 6.33245 4.3847 6.13823 4.48524 5.9996C4.58578 5.86098 4.78 5.83052 4.91862 5.93106Z" fill="#474747"/>
<path d="M4.87291 5.8587C5.01153 5.95924 5.04201 6.15346 4.94147 6.29209C4.84093 6.43071 4.64671 6.46117 4.50809 6.36063C4.36947 6.26009 4.33899 6.06587 4.43953 5.92725C4.54007 5.78862 4.73429 5.75816 4.87291 5.8587Z" fill="#E6E7E8"/>
<path d="M4.89577 5.89526C5.03439 5.9958 5.06487 6.19002 4.96433 6.32864C4.86379 6.46727 4.66955 6.49774 4.53093 6.3972C4.3923 6.29666 4.36184 6.10243 4.46238 5.96381C4.56292 5.82519 4.75714 5.79472 4.89577 5.89526Z" fill="#898989"/>
<path d="M4.06328 7.20226C4.21561 7.27995 4.27655 7.46656 4.19886 7.61966C4.12117 7.77199 3.93456 7.83292 3.78147 7.75523C3.62914 7.67754 3.5682 7.49094 3.64589 7.33784C3.72358 7.18551 3.91019 7.12457 4.06328 7.20226Z" fill="#474747"/>
<path d="M4.00691 7.1383C4.15925 7.21599 4.22018 7.4026 4.14249 7.55569C4.0648 7.70802 3.8782 7.76896 3.7251 7.69127C3.57277 7.61358 3.51183 7.42697 3.58952 7.27387C3.66721 7.12154 3.85382 7.06061 4.00691 7.1383Z" fill="#E6E7E8"/>
<path d="M4.03509 7.17028C4.18742 7.24797 4.24836 7.43458 4.17067 7.58768C4.09298 7.74001 3.90637 7.80094 3.75328 7.72325C3.60095 7.64556 3.54001 7.45895 3.6177 7.30586C3.69539 7.15353 3.882 7.09259 4.03509 7.17028Z" fill="#898989"/>
<path d="M3.41738 8.59232C3.58037 8.64488 3.66948 8.82006 3.61616 8.98306C3.56285 9.14605 3.38843 9.23517 3.22544 9.18186C3.06244 9.1293 2.97332 8.95412 3.02664 8.79112C3.07919 8.62813 3.25438 8.53901 3.41738 8.59232Z" fill="#474747"/>
<path d="M3.35187 8.53749C3.51487 8.59004 3.60399 8.76522 3.55067 8.92822C3.49736 9.09121 3.32293 9.18033 3.15993 9.12701C2.99693 9.07369 2.90783 8.89927 2.96115 8.73628C3.01446 8.57328 3.18887 8.48417 3.35187 8.53749Z" fill="#E6E7E8"/>
<path d="M3.38464 8.56489C3.54764 8.61744 3.63674 8.79263 3.58342 8.95562C3.53011 9.11862 3.3557 9.20773 3.1927 9.15442C3.0297 9.1011 2.94058 8.92668 2.99314 8.76368C3.04569 8.60069 3.22088 8.51157 3.38388 8.56489H3.38464Z" fill="#898989"/>
<path d="M2.99695 10.0654C3.16604 10.092 3.2818 10.2512 3.25438 10.4203C3.22772 10.5894 3.06854 10.7044 2.89945 10.6778C2.73037 10.6511 2.6146 10.4919 2.64202 10.3228C2.66868 10.1537 2.82786 10.038 2.99695 10.0654Z" fill="#474747"/>
<path d="M2.92383 10.022C3.09292 10.0486 3.20869 10.2078 3.18127 10.3769C3.15461 10.546 2.99543 10.6618 2.82634 10.6351C2.65725 10.6084 2.54147 10.4493 2.56889 10.2802C2.59554 10.1111 2.75474 9.99531 2.92383 10.0227V10.022Z" fill="#E6E7E8"/>
<path d="M2.96039 10.0433C3.12948 10.07 3.24525 10.2291 3.21783 10.3982C3.19117 10.5673 3.03199 10.6831 2.8629 10.6557C2.69381 10.629 2.57804 10.4698 2.6047 10.3007C2.63136 10.1317 2.79054 10.0159 2.95963 10.0433H2.96039Z" fill="#898989"/>
<path d="M2.81263 11.5864C2.984 11.5864 3.12261 11.725 3.12261 11.8964C3.12261 12.0678 2.984 12.2064 2.81263 12.2064C2.64125 12.2064 2.50262 12.0678 2.50262 11.8964C2.50262 11.725 2.64125 11.5864 2.81263 11.5864Z" fill="#474747"/>
<path d="M2.73265 11.5552C2.90402 11.5552 3.04265 11.6938 3.04265 11.8652C3.04265 12.0365 2.90402 12.1752 2.73265 12.1752C2.56127 12.1752 2.42265 12.0365 2.42265 11.8652C2.42265 11.6938 2.56127 11.5552 2.73265 11.5552Z" fill="#E6E7E8"/>
<path d="M2.77225 11.5704C2.94363 11.5704 3.08224 11.709 3.08224 11.8804C3.08224 12.0518 2.94363 12.1904 2.77225 12.1904C2.60088 12.1904 2.46225 12.0518 2.46225 11.8804C2.46225 11.709 2.60088 11.5704 2.77225 11.5704Z" fill="#898989"/>
<path d="M2.86747 13.1174C3.03656 13.0907 3.19574 13.2057 3.2224 13.3756C3.24905 13.5447 3.13405 13.7038 2.96496 13.7305C2.79587 13.7572 2.63667 13.6421 2.61002 13.4731C2.58336 13.304 2.69838 13.1448 2.86747 13.1181V13.1174Z" fill="#474747"/>
<path d="M2.78444 13.0991C2.95353 13.0724 3.11271 13.1874 3.13937 13.3565C3.16603 13.5256 3.05103 13.6848 2.88194 13.7115C2.71285 13.7381 2.55367 13.6231 2.52701 13.454C2.50035 13.2849 2.61535 13.1257 2.78444 13.0991Z" fill="#E6E7E8"/>
<path d="M2.82634 13.1082C2.99543 13.0816 3.15461 13.1966 3.18127 13.3657C3.20792 13.5347 3.09292 13.6939 2.92383 13.7206C2.75474 13.7472 2.59554 13.6322 2.56889 13.4631C2.54223 13.2941 2.65725 13.1349 2.82634 13.1082Z" fill="#898989"/>
<path d="M3.16222 14.6217C3.32522 14.5691 3.49965 14.6582 3.55297 14.8205C3.60552 14.9834 3.5164 15.1579 3.35417 15.2112C3.19117 15.2637 3.016 15.1746 2.96344 15.0124C2.91012 14.8494 2.99999 14.675 3.16222 14.6217Z" fill="#474747"/>
<path d="M3.07691 14.6155C3.23991 14.5622 3.41508 14.6513 3.46764 14.8143C3.52019 14.9773 3.43109 15.1525 3.26809 15.2051C3.1051 15.2584 2.93067 15.1693 2.87735 15.0063C2.8248 14.8433 2.91392 14.6681 3.07615 14.6155H3.07691Z" fill="#E6E7E8"/>
<path d="M3.11955 14.6186C3.28255 14.5661 3.45774 14.6544 3.5103 14.8174C3.56361 14.9804 3.47449 15.1556 3.31149 15.2081C3.1485 15.2607 2.97333 15.1716 2.92077 15.0093C2.86822 14.8463 2.95732 14.6712 3.11955 14.6186Z" fill="#898989"/>
<path d="M3.68778 16.0604C3.84011 15.9827 4.02672 16.0437 4.10517 16.196C4.18286 16.3483 4.12192 16.5349 3.96959 16.6134C3.81726 16.6911 3.63065 16.6301 3.55296 16.4778C3.47527 16.3255 3.53621 16.1389 3.68854 16.0604H3.68778Z" fill="#474747"/>
<path d="M3.60247 16.0688C3.7548 15.9911 3.94141 16.0513 4.01986 16.2044C4.09755 16.3567 4.03661 16.5441 3.88428 16.6218C3.73195 16.6995 3.54534 16.6385 3.46689 16.4862C3.3892 16.3339 3.45014 16.1465 3.60247 16.0688Z" fill="#E6E7E8"/>
<path d="M3.64512 16.0642C3.79746 15.9865 3.98482 16.0467 4.06251 16.1998C4.1402 16.3521 4.08003 16.5387 3.92693 16.6164C3.7746 16.6941 3.58723 16.6332 3.50955 16.4808C3.43186 16.3285 3.49279 16.1411 3.64512 16.0642Z" fill="#898989"/>
<path d="M4.43269 17.3994C4.57131 17.2989 4.76477 17.3293 4.86607 17.468C4.96661 17.6066 4.93613 17.8 4.79751 17.9013C4.65889 18.0019 4.46467 17.9714 4.36413 17.8328C4.26359 17.6942 4.29406 17.5007 4.43269 17.3994Z" fill="#474747"/>
<path d="M4.34966 17.4207C4.48828 17.3202 4.6825 17.3507 4.78304 17.4893C4.88358 17.6279 4.85312 17.8221 4.7145 17.9227C4.57587 18.0232 4.3824 17.9927 4.2811 17.8541C4.18056 17.7155 4.21103 17.5213 4.34966 17.4207Z" fill="#E6E7E8"/>
<path d="M4.39079 17.4101C4.52941 17.3095 4.72363 17.34 4.82417 17.4786C4.92471 17.6172 4.89425 17.8107 4.75563 17.9112C4.617 18.0118 4.42277 17.9813 4.32223 17.8427C4.22169 17.7041 4.25216 17.5106 4.39079 17.4093V17.4101Z" fill="#898989"/>
<path d="M5.37714 18.6059C5.49825 18.4848 5.69476 18.4848 5.81586 18.6059C5.93697 18.727 5.93697 18.9235 5.81586 19.0446C5.69476 19.1657 5.49825 19.1657 5.37714 19.0446C5.25604 18.9235 5.25604 18.727 5.37714 18.6059Z" fill="#474747"/>
<path d="M5.29869 18.6402C5.4198 18.5191 5.61631 18.5191 5.73741 18.6402C5.85851 18.7613 5.85851 18.9578 5.73741 19.0789C5.61631 19.2 5.4198 19.2 5.29869 19.0789C5.17759 18.9578 5.17759 18.7613 5.29869 18.6402Z" fill="#E6E7E8"/>
<path d="M5.3383 18.6227C5.4594 18.5016 5.65591 18.5016 5.77701 18.6227C5.89812 18.7438 5.89812 18.9395 5.77701 19.0606C5.65591 19.1817 5.4594 19.1817 5.3383 19.0606C5.21719 18.9395 5.21719 18.743 5.3383 18.6219V18.6227Z" fill="#898989"/>
<path d="M6.49907 19.6494C6.59961 19.5108 6.79383 19.4803 6.93246 19.5808C7.07108 19.6814 7.10156 19.8756 7.00102 20.0142C6.90048 20.1528 6.70624 20.1833 6.56762 20.0828C6.42899 19.9822 6.39853 19.788 6.49907 19.6494Z" fill="#474747"/>
<path d="M6.42672 19.6951C6.52726 19.5565 6.72148 19.526 6.8601 19.6266C6.99872 19.7271 7.02918 19.9213 6.92864 20.0599C6.8281 20.1986 6.63388 20.229 6.49526 20.1285C6.35664 20.0279 6.32618 19.8337 6.42672 19.6951Z" fill="#E6E7E8"/>
<path d="M6.46328 19.6722C6.56382 19.5336 6.75804 19.5032 6.89666 19.6037C7.03528 19.7042 7.06576 19.8985 6.96522 20.0363C6.86468 20.1749 6.67044 20.2054 6.53182 20.1049C6.3932 20.0043 6.36274 19.8101 6.46328 19.6715V19.6722Z" fill="#898989"/>
<path d="M7.77105 20.5047C7.84874 20.3524 8.03535 20.2914 8.18844 20.3691C8.34077 20.4468 8.40171 20.6334 8.32402 20.7865C8.24633 20.9389 8.05972 20.9998 7.90663 20.9221C7.7543 20.8444 7.69336 20.6578 7.77105 20.5055V20.5047Z" fill="#474747"/>
<path d="M7.7063 20.5611C7.78399 20.4087 7.9706 20.3478 8.12369 20.4255C8.27603 20.5032 8.33696 20.6898 8.25927 20.8429C8.18158 20.9952 7.99496 21.0562 7.84186 20.9785C7.68953 20.9008 7.62861 20.7142 7.7063 20.5611Z" fill="#E6E7E8"/>
<path d="M7.73831 20.5329C7.81599 20.3805 8.0026 20.3196 8.15569 20.3973C8.30803 20.475 8.36896 20.6616 8.29127 20.8147C8.21358 20.967 8.02698 21.028 7.87388 20.9503C7.72155 20.8726 7.66062 20.686 7.73831 20.5336V20.5329Z" fill="#898989"/>
<path d="M9.16031 21.1506C9.21363 20.9876 9.38806 20.8985 9.55105 20.9518C9.71405 21.0044 9.80315 21.1796 9.74984 21.3426C9.69728 21.5056 9.52211 21.5947 9.35911 21.5413C9.19612 21.4888 9.10699 21.3136 9.16031 21.1506Z" fill="#474747"/>
<path d="M9.10547 21.2161C9.15802 21.0531 9.33322 20.964 9.49621 21.0173C9.65921 21.0706 9.74831 21.245 9.695 21.408C9.64168 21.571 9.46727 21.6602 9.30427 21.6068C9.14128 21.5535 9.05215 21.3783 9.10547 21.2161Z" fill="#E6E7E8"/>
<path d="M9.1329 21.1834C9.18545 21.0204 9.36063 20.9313 9.52362 20.9846C9.68662 21.0379 9.77574 21.2123 9.72243 21.3753C9.66911 21.5383 9.49468 21.6274 9.33168 21.5741C9.16869 21.5215 9.07958 21.3464 9.1329 21.1834Z" fill="#898989"/>
<path d="M10.6334 21.571C10.66 21.4019 10.8192 21.2869 10.9883 21.3136C11.1574 21.3403 11.2732 21.4994 11.2458 21.6685C11.2191 21.8376 11.0599 21.9526 10.8908 21.926C10.7217 21.8993 10.606 21.7401 10.6334 21.571Z" fill="#474747"/>
<path d="M10.59 21.6442C10.6166 21.4751 10.7758 21.3593 10.9449 21.386C11.114 21.4126 11.2298 21.5718 11.2023 21.7409C11.1757 21.91 11.0165 22.0258 10.8474 21.9983C10.6783 21.9717 10.5625 21.8125 10.59 21.6434V21.6442Z" fill="#E6E7E8"/>
<path d="M10.6121 21.6076C10.6387 21.4385 10.7979 21.3227 10.967 21.3502C11.1361 21.3768 11.2511 21.536 11.2244 21.7051C11.1978 21.8742 11.0386 21.99 10.8695 21.9625C10.7004 21.9359 10.5854 21.7767 10.6121 21.6076Z" fill="#898989"/>
<path d="M12.1544 21.7554C12.1544 21.584 12.2938 21.4454 12.4644 21.4454C12.6358 21.4454 12.7744 21.584 12.7744 21.7554C12.7744 21.9267 12.6358 22.0654 12.4644 22.0654C12.293 22.0654 12.1544 21.9267 12.1544 21.7554Z" fill="#474747"/>
<path d="M12.1232 21.8354C12.1232 21.664 12.2618 21.5254 12.4332 21.5254C12.6045 21.5254 12.7432 21.664 12.7432 21.8354C12.7432 22.0067 12.6038 22.1453 12.4332 22.1453C12.2618 22.1453 12.1232 22.006 12.1232 21.8354Z" fill="#E6E7E8"/>
<path d="M12.1392 21.795C12.1392 21.6236 12.2778 21.485 12.4492 21.485C12.6206 21.485 12.7592 21.6236 12.7592 21.795C12.7592 21.9664 12.6206 22.105 12.4492 22.105C12.2778 22.105 12.1392 21.9664 12.1392 21.795Z" fill="#898989"/>
<path d="M13.6861 21.6998C13.6595 21.5307 13.7752 21.3723 13.9443 21.3448C14.1134 21.3182 14.2726 21.4332 14.2993 21.603C14.3259 21.7721 14.2109 21.9313 14.0418 21.958C13.8727 21.9846 13.7136 21.8696 13.6869 21.7005L13.6861 21.6998Z" fill="#474747"/>
<path d="M13.6671 21.7835C13.6404 21.6145 13.7554 21.4553 13.9245 21.4286C14.0936 21.402 14.2528 21.517 14.2795 21.6868C14.3061 21.8559 14.1903 22.0151 14.022 22.0417C13.8529 22.0684 13.6938 21.9526 13.6671 21.7843V21.7835Z" fill="#E6E7E8"/>
<path d="M13.6762 21.7417C13.6496 21.5726 13.7646 21.4134 13.9337 21.3867C14.1028 21.3601 14.2619 21.4751 14.2886 21.6442C14.3153 21.8133 14.2002 21.9725 14.0312 21.9991C13.8621 22.0258 13.7029 21.9108 13.6762 21.7409V21.7417Z" fill="#898989"/>
<path d="M15.1897 21.4058C15.1371 21.2428 15.2262 21.0683 15.3892 21.015C15.5522 20.9625 15.7274 21.0516 15.7799 21.2138C15.8333 21.3768 15.7441 21.5512 15.5804 21.6046C15.4174 21.6571 15.2422 21.568 15.1897 21.4058Z" fill="#474747"/>
<path d="M15.1843 21.4918C15.131 21.3288 15.2209 21.1536 15.3831 21.1011C15.5461 21.0478 15.7213 21.1369 15.7738 21.2999C15.8264 21.4629 15.7373 21.6381 15.5743 21.6906C15.4113 21.7439 15.2361 21.6541 15.1835 21.4918H15.1843Z" fill="#E6E7E8"/>
<path d="M15.1866 21.4484C15.134 21.2854 15.2224 21.1102 15.3854 21.0577C15.5484 21.0051 15.7228 21.0935 15.7761 21.2565C15.8287 21.4195 15.7396 21.5946 15.5773 21.6472C15.4143 21.7005 15.2399 21.6106 15.1866 21.4484Z" fill="#898989"/>
<path d="M16.6284 20.8802C16.5507 20.7279 16.6117 20.5405 16.764 20.4628C16.9163 20.3851 17.1037 20.4461 17.1814 20.5984C17.2591 20.7515 17.1981 20.9381 17.0458 21.0158C16.8935 21.0935 16.7069 21.0325 16.6284 20.8802Z" fill="#474747"/>
<path d="M16.6368 20.9655C16.5591 20.8132 16.6193 20.6258 16.7724 20.5481C16.9247 20.4704 17.1121 20.5306 17.1898 20.6837C17.2675 20.836 17.2065 21.0227 17.0542 21.1011C16.9019 21.1788 16.7145 21.1179 16.6368 20.9655Z" fill="#E6E7E8"/>
<path d="M16.633 20.9229C16.5553 20.7705 16.6162 20.5832 16.7686 20.5062C16.9209 20.4285 17.1075 20.4887 17.1852 20.6418C17.2629 20.7941 17.202 20.9815 17.0496 21.0592C16.8973 21.1369 16.7107 21.076 16.6322 20.9236L16.633 20.9229Z" fill="#898989"/>
<path d="M17.9682 20.1353C17.8676 19.9967 17.8989 19.8025 18.0367 19.7019C18.1754 19.6014 18.3688 19.6319 18.4701 19.7705C18.5707 19.9091 18.5402 20.1026 18.4016 20.2039C18.2629 20.3044 18.0695 20.2739 17.9682 20.1353Z" fill="#474747"/>
<path d="M17.9888 20.2183C17.8882 20.0797 17.9187 19.8855 18.0573 19.7849C18.1959 19.6844 18.3902 19.7149 18.4907 19.8535C18.5912 19.9921 18.5608 20.1863 18.4221 20.2869C18.2835 20.3874 18.0893 20.3562 17.9888 20.2183Z" fill="#E6E7E8"/>
<path d="M17.9788 20.1765C17.8783 20.0378 17.9088 19.8444 18.0474 19.7431C18.186 19.6425 18.3795 19.673 18.48 19.8116C18.5806 19.9502 18.5501 20.1445 18.4115 20.245C18.2728 20.3455 18.0786 20.3151 17.9781 20.1765H17.9788Z" fill="#898989"/>
<path d="M19.1739 19.1901C19.0528 19.069 19.0528 18.8725 19.1739 18.7514C19.295 18.6303 19.4915 18.6303 19.6126 18.7514C19.7337 18.8725 19.7337 19.069 19.6126 19.1901C19.4915 19.3112 19.295 19.3112 19.1739 19.1901Z" fill="#474747"/>
<path d="M19.2082 19.2693C19.0871 19.1482 19.0871 18.9517 19.2082 18.8306C19.3293 18.7095 19.5258 18.7095 19.6469 18.8306C19.768 18.9517 19.768 19.1482 19.6469 19.2693C19.5258 19.3904 19.3293 19.3904 19.2082 19.2693Z" fill="#E6E7E8"/>
<path d="M19.1914 19.2297C19.0703 19.1086 19.0703 18.9121 19.1914 18.791C19.3125 18.6699 19.509 18.6699 19.6301 18.791C19.7512 18.9121 19.7512 19.1086 19.6301 19.2297C19.509 19.3508 19.3125 19.3508 19.1914 19.2297Z" fill="#898989"/>
<path d="M20.2174 18.0682C20.0788 17.9676 20.0483 17.7734 20.1488 17.6348C20.2494 17.4961 20.4436 17.4657 20.5822 17.5662C20.7208 17.6668 20.7513 17.861 20.6508 17.9996C20.5502 18.1382 20.356 18.1687 20.2174 18.0682Z" fill="#474747"/>
<path d="M20.2638 18.1413C20.1252 18.0407 20.0948 17.8465 20.1953 17.7079C20.2958 17.5693 20.4901 17.5388 20.6287 17.6393C20.7673 17.7399 20.7978 17.9341 20.6972 18.0727C20.5967 18.2113 20.4025 18.2418 20.2638 18.1413Z" fill="#E6E7E8"/>
<path d="M20.2402 18.1047C20.1016 18.0042 20.0711 17.8099 20.1717 17.6713C20.2722 17.5327 20.4657 17.5022 20.6043 17.6028C20.7429 17.7033 20.7734 17.8975 20.6729 18.0362C20.5723 18.1748 20.3781 18.2052 20.2395 18.1047H20.2402Z" fill="#898989"/>
<path d="M21.0727 16.797C20.9204 16.7193 20.8595 16.5327 20.9372 16.3803C21.0148 16.228 21.2015 16.1671 21.3545 16.2447C21.5069 16.3224 21.5678 16.509 21.4901 16.6621C21.4124 16.8145 21.2258 16.8754 21.0735 16.7977L21.0727 16.797Z" fill="#474747"/>
<path d="M21.1291 16.8617C20.976 16.784 20.9158 16.5974 20.9935 16.4443C21.0712 16.292 21.2578 16.2311 21.4109 16.3087C21.5632 16.3864 21.6242 16.573 21.5465 16.7261C21.4688 16.8785 21.2822 16.9394 21.1291 16.8617Z" fill="#E6E7E8"/>
<path d="M21.1009 16.8297C20.9486 16.752 20.8876 16.5654 20.9653 16.4123C21.043 16.26 21.2296 16.199 21.382 16.2767C21.5343 16.3544 21.5952 16.5418 21.5175 16.6941C21.4398 16.8465 21.2532 16.9074 21.1001 16.8297H21.1009Z" fill="#898989"/>
<path d="M21.7186 15.4077C21.5556 15.3551 21.4665 15.1799 21.5198 15.0169C21.5731 14.854 21.7476 14.7648 21.9106 14.8182C22.0736 14.8707 22.1627 15.0459 22.1093 15.2089C22.0568 15.3719 21.8816 15.461 21.7186 15.4077Z" fill="#474747"/>
<path d="M21.7849 15.4625C21.6219 15.4092 21.5328 15.2348 21.5861 15.0718C21.6386 14.9088 21.8138 14.8197 21.9768 14.873C22.1398 14.9263 22.2289 15.1007 22.1756 15.2637C22.1223 15.4267 21.9479 15.5158 21.7849 15.4633V15.4625Z" fill="#E6E7E8"/>
<path d="M21.7514 15.4351C21.5891 15.3818 21.4992 15.2073 21.5526 15.0444C21.6051 14.8814 21.7803 14.7922 21.9433 14.8456C22.1063 14.8989 22.1954 15.0733 22.1421 15.2363C22.0895 15.3993 21.9144 15.4884 21.7514 15.4351Z" fill="#898989"/>
<path d="M22.1391 13.9346C21.97 13.9079 21.855 13.7488 21.8816 13.5797C21.9083 13.4106 22.0675 13.2956 22.2366 13.3222C22.4057 13.3489 22.5207 13.5081 22.494 13.6772C22.4673 13.8463 22.3082 13.9613 22.1391 13.9346Z" fill="#474747"/>
<path d="M22.2129 13.978C22.0438 13.9514 21.9281 13.7922 21.9555 13.6231C21.9821 13.454 22.1413 13.3382 22.3104 13.3657C22.4795 13.3923 22.5953 13.5515 22.5686 13.7206C22.542 13.8897 22.3828 14.0055 22.2137 13.9788L22.2129 13.978Z" fill="#E6E7E8"/>
<path d="M22.1756 13.9559C22.0065 13.9293 21.8908 13.7701 21.9182 13.601C21.9448 13.4319 22.1033 13.3169 22.2731 13.3436C22.4422 13.3702 22.558 13.5294 22.5306 13.6985C22.5039 13.8676 22.3447 13.9834 22.1756 13.9559Z" fill="#898989"/>
<path d="M22.3234 12.4136C22.152 12.4136 22.0134 12.2742 22.0134 12.1036C22.0134 11.9322 22.152 11.7936 22.3234 11.7936C22.4948 11.7936 22.6334 11.9322 22.6334 12.1036C22.6334 12.2742 22.4948 12.4136 22.3234 12.4136Z" fill="#474747"/>
<path d="M22.4034 12.4448C22.232 12.4448 22.0934 12.3054 22.0934 12.1348C22.0934 11.9634 22.232 11.8248 22.4034 11.8248C22.5747 11.8248 22.7133 11.9634 22.7133 12.1348C22.7133 12.3062 22.574 12.4448 22.4034 12.4448Z" fill="#E6E7E8"/>
<path d="M22.3638 12.4288C22.1924 12.4288 22.0538 12.2902 22.0538 12.1188C22.0538 11.9474 22.1924 11.8088 22.3638 11.8088C22.5351 11.8088 22.6738 11.9482 22.6738 12.1188C22.6738 12.2902 22.5351 12.4288 22.3638 12.4288Z" fill="#898989"/>
<path d="M22.2685 10.8819C22.0995 10.9085 21.941 10.7928 21.9136 10.6237C21.8869 10.4546 22.002 10.2954 22.171 10.2687C22.3401 10.2421 22.4993 10.3571 22.526 10.5269C22.5526 10.696 22.4376 10.8545 22.2685 10.8819Z" fill="#474747"/>
<path d="M22.3523 10.9009C22.1832 10.9276 22.024 10.8118 21.9974 10.6427C21.9707 10.4736 22.0857 10.3144 22.2548 10.2878C22.4239 10.2611 22.5831 10.3761 22.6098 10.5452C22.6364 10.7143 22.5206 10.8735 22.3523 10.9002V10.9009Z" fill="#E6E7E8"/>
<path d="M22.3104 10.8918C22.1414 10.9184 21.9822 10.8034 21.9555 10.6336C21.9288 10.4645 22.0439 10.306 22.2129 10.2786C22.382 10.252 22.5412 10.367 22.5679 10.5361C22.5945 10.7052 22.4795 10.8643 22.3104 10.891V10.8918Z" fill="#898989"/>
<path d="M21.9738 9.37836C21.8108 9.43167 21.6364 9.3418 21.583 9.17956C21.5297 9.01657 21.6196 8.84215 21.7818 8.78883C21.9448 8.73627 22.1192 8.82539 22.1726 8.98838C22.2251 9.15138 22.136 9.3258 21.973 9.37912L21.9738 9.37836Z" fill="#474747"/>
<path d="M22.0598 9.3837C21.8968 9.43702 21.7216 9.34714 21.6691 9.18415C21.6158 9.02115 21.7049 8.84673 21.8679 8.79341C22.0309 8.74086 22.2061 8.82997 22.2586 8.99221C22.3119 9.1552 22.2221 9.33038 22.0598 9.38294V9.3837Z" fill="#E6E7E8"/>
<path d="M22.0172 9.38141C21.8542 9.43397 21.6798 9.34485 21.6265 9.18186C21.5731 9.01886 21.6622 8.84444 21.8252 8.79112C21.9882 8.73857 22.1634 8.82768 22.216 8.98992C22.2693 9.15291 22.1794 9.3281 22.0172 9.38065V9.38141Z" fill="#898989"/>
<path d="M21.4482 7.93959C21.2959 8.01728 21.1093 7.95634 21.0308 7.80401C20.9532 7.65168 21.0141 7.46431 21.1664 7.38662C21.3188 7.30893 21.5054 7.36986 21.5838 7.5222C21.6615 7.67453 21.6006 7.86114 21.4482 7.93959Z" fill="#474747"/>
<path d="M21.5335 7.93119C21.3804 8.00888 21.1938 7.94795 21.1161 7.79562C21.0384 7.64329 21.0986 7.45668 21.2517 7.37823C21.404 7.30054 21.5914 7.36147 21.6691 7.5138C21.7468 7.66614 21.6859 7.8535 21.5335 7.93119Z" fill="#E6E7E8"/>
<path d="M21.4909 7.93501C21.3385 8.0127 21.1519 7.95177 21.0735 7.79943C20.9958 7.6471 21.0567 7.4605 21.209 7.38281C21.3614 7.30512 21.5488 7.36605 21.6265 7.51838C21.7041 7.67071 21.6432 7.85808 21.4909 7.93577V7.93501Z" fill="#898989"/>
<path d="M20.7033 6.5998C20.5647 6.70034 20.3705 6.66911 20.2699 6.53125C20.1694 6.39263 20.1999 6.1984 20.3385 6.09786C20.4771 5.99732 20.6706 6.02779 20.7719 6.16642C20.8724 6.30504 20.8419 6.4985 20.7033 6.5998Z" fill="#474747"/>
<path d="M20.7871 6.57923C20.6485 6.67977 20.4542 6.64931 20.3537 6.51068C20.2532 6.37206 20.2836 6.1786 20.4223 6.0773C20.5609 5.97676 20.7551 6.00722 20.8556 6.14584C20.9562 6.28447 20.9257 6.47869 20.7871 6.57923Z" fill="#E6E7E8"/>
<path d="M20.7452 6.58912C20.6066 6.68966 20.4131 6.65919 20.3118 6.52057C20.2113 6.38195 20.2418 6.18849 20.3804 6.08795C20.519 5.98741 20.7132 6.01787 20.8138 6.15649C20.9143 6.29512 20.8838 6.48858 20.7452 6.58988V6.58912Z" fill="#898989"/>
<path d="M19.7589 5.39408C19.6378 5.51518 19.4413 5.51518 19.3202 5.39408C19.199 5.27298 19.199 5.07647 19.3202 4.95536C19.4413 4.83426 19.6378 4.83426 19.7589 4.95536C19.88 5.07647 19.88 5.27298 19.7589 5.39408Z" fill="#474747"/>
<path d="M19.8373 5.35981C19.7162 5.48091 19.5197 5.48091 19.3986 5.35981C19.2775 5.2387 19.2775 5.04219 19.3986 4.92109C19.5197 4.79999 19.7162 4.79999 19.8373 4.92109C19.9584 5.04219 19.9584 5.2387 19.8373 5.35981Z" fill="#E6E7E8"/>
<path d="M19.7977 5.37656C19.6766 5.49767 19.4801 5.49767 19.359 5.37656C19.2379 5.25546 19.2379 5.05971 19.359 4.93784C19.4801 4.81674 19.6766 4.81674 19.7977 4.93784C19.9188 5.05895 19.9188 5.25546 19.7977 5.37656Z" fill="#898989"/>
<path d="M18.6369 4.35059C18.5364 4.48921 18.3422 4.51968 18.2035 4.41914C18.0649 4.3186 18.0345 4.12437 18.135 3.98575C18.2355 3.84713 18.429 3.81666 18.5684 3.9172C18.707 4.01774 18.7375 4.21196 18.6369 4.35059Z" fill="#474747"/>
<path d="M18.7093 4.3049C18.6087 4.44352 18.4145 4.47399 18.2759 4.37345C18.1373 4.27291 18.1068 4.07869 18.2073 3.94007C18.3079 3.80144 18.5021 3.77098 18.6407 3.87151C18.7793 3.97205 18.8098 4.16628 18.7093 4.3049Z" fill="#E6E7E8"/>
<path d="M18.6727 4.32776C18.5722 4.46638 18.378 4.49685 18.2393 4.39631C18.1007 4.29577 18.0702 4.10231 18.1708 3.96292C18.2713 3.8243 18.4655 3.79383 18.6042 3.89437C18.7428 3.99491 18.7733 4.18914 18.6727 4.32776Z" fill="#898989"/>
<path d="M17.3657 3.49526C17.288 3.6476 17.1014 3.70853 16.9483 3.63084C16.796 3.55315 16.7351 3.36654 16.8127 3.21345C16.8904 3.06112 17.077 3.00019 17.2301 3.07787C17.3825 3.15556 17.4434 3.34217 17.3657 3.49526Z" fill="#474747"/>
<path d="M17.4297 3.4389C17.352 3.592 17.1646 3.65217 17.0123 3.57448C16.86 3.49679 16.799 3.31018 16.8767 3.15708C16.9544 3.00475 17.141 2.94382 17.2941 3.02151C17.4465 3.0992 17.5074 3.28657 17.4297 3.4389Z" fill="#E6E7E8"/>
<path d="M17.3977 3.46707C17.32 3.6194 17.1334 3.68033 16.9811 3.60264C16.8288 3.52496 16.7678 3.33835 16.8455 3.18602C16.9232 3.03368 17.1098 2.97275 17.2629 3.05044C17.4152 3.12813 17.4762 3.31474 17.3985 3.46783L17.3977 3.46707Z" fill="#898989"/>
<path d="M15.9757 2.84936C15.9231 3.01236 15.7479 3.10147 15.585 3.04815C15.422 2.9956 15.3328 2.82042 15.3854 2.65742C15.4387 2.49442 15.6131 2.40531 15.7761 2.45863C15.9384 2.51118 16.0282 2.68637 15.9749 2.84936H15.9757Z" fill="#474747"/>
<path d="M16.0305 2.78311C15.9772 2.9461 15.802 3.03522 15.6398 2.9819C15.4768 2.92935 15.3877 2.75416 15.441 2.59117C15.4935 2.42817 15.6687 2.33906 15.8317 2.39237C15.9947 2.44493 16.0838 2.62087 16.0313 2.78311H16.0305Z" fill="#E6E7E8"/>
<path d="M16.0031 2.81662C15.9498 2.97961 15.7753 3.06873 15.6124 3.01541C15.4494 2.96285 15.3603 2.78767 15.4136 2.62468C15.4669 2.46168 15.6413 2.37257 15.8043 2.42588C15.9673 2.47844 16.0564 2.65362 16.0031 2.81662Z" fill="#898989"/>
<path d="M14.5026 2.42893C14.476 2.59802 14.3168 2.71303 14.1477 2.68637C13.9786 2.65972 13.8628 2.50053 13.8903 2.33144C13.9169 2.16235 14.0753 2.04734 14.2452 2.074C14.4143 2.10066 14.5293 2.25984 14.5026 2.42893Z" fill="#474747"/>
<path d="M14.546 2.35505C14.5194 2.52414 14.3602 2.63991 14.1911 2.61249C14.022 2.58583 13.9063 2.42664 13.9337 2.25756C13.9603 2.08847 14.1195 1.97346 14.2886 2.00012C14.4577 2.02677 14.5735 2.18596 14.5468 2.35505H14.546Z" fill="#E6E7E8"/>
<path d="M14.5247 2.39237C14.4981 2.56146 14.3389 2.67647 14.1698 2.64982C14.0007 2.62316 13.8857 2.46473 13.9123 2.29488C13.939 2.12579 14.0982 2.01002 14.2673 2.03744C14.4364 2.0641 14.5521 2.22328 14.5247 2.39237Z" fill="#898989"/>
<path d="M15.5499 9.56494C15.5331 9.59541 15.5446 9.63349 15.575 9.65025C16.1333 9.95415 16.5743 10.2862 16.9095 10.5886C16.9415 10.6176 16.9323 10.6716 16.8919 10.6869C16.8919 10.6869 16.8919 10.6869 16.8912 10.6869C16.7389 10.7432 16.5873 10.7257 16.4357 10.6869C16.1318 10.6084 15.8568 10.4622 15.5811 10.319C15.1226 10.0806 14.6717 9.82696 14.1812 9.65711C14.0624 9.61598 13.9413 9.57865 13.8202 9.5459C13.7958 9.53905 13.7531 9.55123 13.7356 9.57028C13.2078 10.1689 12.5215 10.4508 11.7507 10.5597C11.0873 10.6541 10.4277 10.6145 9.77269 10.4827C9.76507 10.4812 9.75821 10.4774 9.7346 10.469C9.77345 10.4546 9.8001 10.4447 9.82676 10.4348C10.2381 10.2862 10.612 10.0775 10.9236 9.76526C11.1589 9.52915 11.3265 9.25342 11.4019 8.92591C11.4087 8.8962 11.4126 8.86574 11.4202 8.82308C11.2473 8.82004 11.0812 8.81471 10.9159 8.81394C10.1337 8.81166 9.35986 8.8863 8.60581 9.1049C7.7756 9.34635 7.03223 9.73708 6.44651 10.3883C5.92249 10.9717 5.60411 11.6504 5.54851 12.4402C5.53937 12.5728 5.55155 12.7076 5.56374 12.8401C5.58659 13.0762 5.7176 13.2453 5.93162 13.3337C6.17079 13.4327 6.41756 13.5142 6.66433 13.5949C6.99109 13.7023 7.30946 13.8219 7.57604 14.0481C7.88832 14.3116 8.06656 14.7283 8.08027 15.1365C7.92642 14.8577 7.66364 14.7778 7.38715 14.7389C7.1 14.6986 6.80906 14.6826 6.52039 14.6529C6.43584 14.6445 6.35206 14.6323 6.26904 14.6155C6.1426 14.5889 6.02149 14.547 5.92019 14.4464C5.91486 14.5158 5.91638 14.579 5.9042 14.6399C5.87754 14.777 5.80442 14.8928 5.71835 14.9994C5.62924 15.1091 5.53707 15.2157 5.4472 15.3246C5.14939 15.6841 5.00697 15.9919 5.1136 16.4984C5.04048 16.3993 4.96507 16.3026 4.89576 16.2006C4.55225 15.6986 4.49665 15.1601 4.69392 14.5904C4.77085 14.3672 4.8493 14.1441 4.92166 13.9186C5.04886 13.5225 5.04047 13.1272 4.89118 12.7396C4.56367 11.888 4.52787 11.0159 4.73809 10.1392C5.16919 8.33638 6.21877 6.98976 7.81445 6.06282C8.27678 5.79471 8.77567 5.60658 9.29512 5.47862C9.32026 5.47253 9.34539 5.46643 9.36976 5.45882C9.37433 5.45806 9.37815 5.45349 9.39338 5.44359C9.03235 4.83806 8.49843 4.44352 7.8792 4.13353C8.0521 4.12591 8.22422 4.1122 8.39712 4.11068C9.03768 4.10534 9.66224 4.20512 10.2655 4.42448C10.8124 4.62404 11.3044 4.91575 11.7332 5.31334C11.7675 5.34533 11.8193 5.3697 11.8665 5.3758C12.6952 5.4969 13.4805 5.7414 14.1896 6.19687C15.1904 6.83972 15.8546 7.74228 16.2148 8.86954C16.2918 9.11023 16.4037 9.32198 16.5561 9.51925C16.6924 9.69595 16.8242 9.87646 16.9491 10.0608C17.0054 10.1438 17.0473 10.236 17.0755 10.3319V10.3342C17.1022 10.4226 16.9971 10.4896 16.9277 10.4294C16.5957 10.1392 16.1691 9.82619 15.6344 9.53524C15.604 9.51848 15.5651 9.52991 15.5491 9.56114L15.5499 9.56494Z" fill="#292929"/>
<path d="M15.5012 9.46137C15.4844 9.49184 15.4958 9.52992 15.5263 9.54668C16.0846 9.85058 16.5256 10.1827 16.8607 10.485C16.8927 10.514 16.8836 10.5681 16.8432 10.5833C16.8432 10.5833 16.8432 10.5833 16.8425 10.5833C16.6901 10.6397 16.5386 10.6221 16.387 10.5833C16.0831 10.5048 15.8081 10.3586 15.5324 10.2154C15.0739 9.97702 14.623 9.72338 14.1325 9.55353C14.0136 9.5124 13.8925 9.47508 13.7714 9.44233C13.7471 9.43547 13.7044 9.44766 13.6869 9.4667C13.1591 10.0654 12.4728 10.3472 11.702 10.4561C11.0386 10.5505 10.379 10.5109 9.72396 10.3792C9.71634 10.3776 9.70949 10.3738 9.68588 10.3655C9.72472 10.351 9.75138 10.3411 9.77804 10.3312C10.1893 10.1827 10.5633 9.97397 10.8748 9.66169C11.1102 9.42557 11.2777 9.14985 11.3531 8.82233C11.36 8.79263 11.3638 8.76216 11.3714 8.71951C11.1985 8.71646 11.0325 8.71113 10.8672 8.71037C10.085 8.70809 9.31113 8.78273 8.55709 9.00133C7.72688 9.24277 6.98349 9.6335 6.39777 10.2847C5.87374 10.8682 5.55536 11.5468 5.49976 12.3366C5.49062 12.4692 5.50282 12.604 5.51501 12.7365C5.53786 12.9726 5.66885 13.1417 5.88288 13.2301C6.12204 13.3291 6.36883 13.4106 6.61561 13.4913C6.94236 13.5987 7.26074 13.7183 7.52732 13.9445C7.8396 14.2081 8.01784 14.6247 8.03155 15.0329C7.87769 14.7542 7.61491 14.6742 7.33843 14.6353C7.05128 14.595 6.76032 14.579 6.47165 14.5493C6.3871 14.5409 6.30333 14.5287 6.22031 14.512C6.09388 14.4853 5.97277 14.4434 5.87146 14.3429C5.86613 14.4122 5.86766 14.4754 5.85547 14.5363C5.82881 14.6734 5.7557 14.7892 5.66963 14.8958C5.58052 15.0055 5.48835 15.1121 5.39847 15.2211C5.10066 15.5806 4.95822 15.8883 5.06486 16.3948C4.99174 16.2958 4.91634 16.199 4.84703 16.097C4.50352 15.595 4.44791 15.0565 4.64518 14.4868C4.72211 14.2637 4.80056 14.0405 4.87292 13.815C5.00011 13.419 4.99174 13.0237 4.84246 12.636C4.51494 11.7844 4.47914 10.9123 4.68936 10.0357C5.12046 8.23281 6.17003 6.88619 7.76571 5.95924C8.22804 5.69114 8.72694 5.50301 9.2464 5.37505C9.27153 5.36895 9.29666 5.36286 9.32104 5.35524C9.32561 5.35448 9.32942 5.34991 9.34465 5.34001C8.98363 4.73449 8.44969 4.33995 7.83046 4.02995C8.00336 4.02233 8.1755 4.00862 8.34839 4.0071C8.98895 4.00177 9.61352 4.10155 10.2168 4.32091C10.7636 4.52046 11.2557 4.81218 11.6845 5.20977C11.7188 5.24176 11.7705 5.26613 11.8178 5.27222C12.6465 5.39333 13.4317 5.63782 14.1408 6.09329C15.1417 6.73614 15.8058 7.63871 16.1661 8.76597C16.243 9.00666 16.355 9.2184 16.5073 9.41567C16.6437 9.59238 16.7754 9.77289 16.9003 9.95721C16.9567 10.0402 16.9986 10.1324 17.0268 10.2284V10.2306C17.0534 10.319 16.9483 10.386 16.879 10.3259C16.5469 10.0357 16.1204 9.72262 15.5857 9.43166C15.5552 9.41491 15.5164 9.42633 15.5004 9.45756L15.5012 9.46137Z" fill="url(#paint3_radial_0_625)"/>
<g opacity="0.69">
<path d="M15.5012 9.46137C15.4844 9.49184 15.4958 9.52992 15.5263 9.54668C16.0846 9.85058 16.5256 10.1827 16.8607 10.485C16.8927 10.514 16.8836 10.5681 16.8432 10.5833C16.8432 10.5833 16.8432 10.5833 16.8425 10.5833C16.6901 10.6397 16.5386 10.6221 16.387 10.5833C16.0831 10.5048 15.8081 10.3586 15.5324 10.2154C15.0739 9.97702 14.623 9.72338 14.1325 9.55353C14.0136 9.5124 13.8925 9.47508 13.7714 9.44233C13.7471 9.43547 13.7044 9.44766 13.6869 9.4667C13.1591 10.0654 12.4728 10.3472 11.702 10.4561C11.0386 10.5505 10.379 10.5109 9.72396 10.3792C9.71634 10.3776 9.70949 10.3738 9.68588 10.3655C9.72472 10.351 9.75138 10.3411 9.77804 10.3312C10.1893 10.1827 10.5633 9.97397 10.8748 9.66169C11.1102 9.42557 11.2777 9.14985 11.3531 8.82233C11.36 8.79263 11.3638 8.76216 11.3714 8.71951C11.1985 8.71646 11.0325 8.71113 10.8672 8.71037C10.085 8.70809 9.31113 8.78273 8.55709 9.00133C7.72688 9.24277 6.98349 9.6335 6.39777 10.2847C5.87374 10.8682 5.55536 11.5468 5.49976 12.3366C5.49062 12.4692 5.50282 12.604 5.51501 12.7365C5.53786 12.9726 5.66885 13.1417 5.88288 13.2301C6.12204 13.3291 6.36883 13.4106 6.61561 13.4913C6.94236 13.5987 7.26074 13.7183 7.52732 13.9445C7.8396 14.2081 8.01784 14.6247 8.03155 15.0329C7.87769 14.7542 7.61491 14.6742 7.33843 14.6353C7.05128 14.595 6.76032 14.579 6.47165 14.5493C6.3871 14.5409 6.30333 14.5287 6.22031 14.512C6.09388 14.4853 5.97277 14.4434 5.87146 14.3429C5.86613 14.4122 5.86766 14.4754 5.85547 14.5363C5.82881 14.6734 5.7557 14.7892 5.66963 14.8958C5.58052 15.0055 5.48835 15.1121 5.39847 15.2211C5.10066 15.5806 4.95822 15.8883 5.06486 16.3948C4.99174 16.2958 4.91634 16.199 4.84703 16.097C4.50352 15.595 4.44791 15.0565 4.64518 14.4868C4.72211 14.2637 4.80056 14.0405 4.87292 13.815C5.00011 13.419 4.99174 13.0237 4.84246 12.636C4.51494 11.7844 4.47914 10.9123 4.68936 10.0357C5.12046 8.23281 6.17003 6.88619 7.76571 5.95924C8.22804 5.69114 8.72694 5.50301 9.2464 5.37505C9.27153 5.36895 9.29666 5.36286 9.32104 5.35524C9.32561 5.35448 9.32942 5.34991 9.34465 5.34001C8.98363 4.73449 8.44969 4.33995 7.83046 4.02995C8.00336 4.02233 8.1755 4.00862 8.34839 4.0071C8.98895 4.00177 9.61352 4.10155 10.2168 4.32091C10.7636 4.52046 11.2557 4.81218 11.6845 5.20977C11.7188 5.24176 11.7705 5.26613 11.8178 5.27222C12.6465 5.39333 13.4317 5.63782 14.1408 6.09329C15.1417 6.73614 15.8058 7.63871 16.1661 8.76597C16.243 9.00666 16.355 9.2184 16.5073 9.41567C16.6437 9.59238 16.7754 9.77289 16.9003 9.95721C16.9567 10.0402 16.9986 10.1324 17.0268 10.2284V10.2306C17.0534 10.319 16.9483 10.386 16.879 10.3259C16.5469 10.0357 16.1204 9.72262 15.5857 9.43166C15.5552 9.41491 15.5164 9.42633 15.5004 9.45756L15.5012 9.46137Z" fill="#4A4A4A"/>
</g>
<path d="M9.96235 15.0626C9.97454 15.0299 9.95778 14.9941 9.92503 14.9819C9.32941 14.761 8.84575 14.4937 8.47025 14.2423C8.43445 14.2179 8.43598 14.1631 8.4733 14.1425C8.4733 14.1425 8.4733 14.1425 8.47406 14.1425C8.61649 14.0656 8.7696 14.0603 8.92498 14.0778C9.23726 14.1121 9.53048 14.2179 9.82372 14.3208C10.3112 14.4914 10.7941 14.6787 11.3036 14.777C11.427 14.8006 11.5519 14.8204 11.6769 14.8364C11.702 14.8394 11.7424 14.8219 11.7568 14.8006C12.1948 14.1334 12.8338 13.7571 13.5818 13.5393C14.2254 13.3519 14.8835 13.2978 15.5507 13.3352C15.5583 13.3352 15.5652 13.3382 15.5903 13.3435C15.5537 13.3633 15.5286 13.3771 15.5035 13.39C15.1173 13.5949 14.7768 13.8554 14.5125 14.208C14.313 14.4754 14.1865 14.7724 14.1576 15.1068C14.1546 15.1373 14.1553 15.1677 14.1538 15.2111C14.3252 15.1898 14.4904 15.1715 14.6542 15.1487C15.4288 15.0405 16.1844 14.8562 16.8996 14.5325C17.6871 14.176 18.3681 13.6832 18.8548 12.9559C19.2904 12.3039 19.5098 11.5864 19.4527 10.7973C19.4428 10.6648 19.4123 10.533 19.3803 10.4035C19.324 10.1727 19.1701 10.0242 18.9462 9.96709C18.6948 9.90311 18.4397 9.85741 18.1845 9.81247C17.8456 9.75306 17.5142 9.67918 17.2172 9.49334C16.8706 9.27626 16.6353 8.88934 16.5637 8.48794C16.7556 8.74233 17.0275 8.78423 17.3063 8.78346C17.5965 8.7827 17.8867 8.75757 18.1769 8.74538C18.2614 8.74157 18.3467 8.74157 18.4313 8.74691C18.56 8.75528 18.6864 8.77966 18.8007 8.86496C18.7961 8.79565 18.7855 8.7332 18.7893 8.6715C18.7961 8.53212 18.8525 8.4072 18.9226 8.28915C18.9949 8.16804 19.0711 8.04922 19.145 7.92812C19.3887 7.52977 19.4862 7.20454 19.3087 6.7186C19.3948 6.80619 19.4839 6.8915 19.5669 6.98213C19.9782 7.42999 20.1092 7.95478 19.995 8.54735C19.95 8.77966 19.9043 9.0112 19.8647 9.24503C19.7954 9.65481 19.8594 10.0455 20.062 10.4081C20.5068 11.204 20.666 12.0624 20.583 12.9604C20.4124 14.8059 19.5646 16.2881 18.116 17.4322C17.6963 17.7635 17.2294 18.0194 16.7335 18.2205C16.7099 18.2304 16.6855 18.2395 16.6619 18.2502C16.6574 18.2517 16.6543 18.2563 16.6414 18.2685C17.0847 18.8169 17.6689 19.1314 18.3262 19.35C18.1563 19.382 17.9872 19.4201 17.8166 19.446C17.1829 19.542 16.5507 19.5321 15.9231 19.4003C15.3534 19.2799 14.8248 19.0613 14.3442 18.7285C14.3054 18.7018 14.2505 18.6851 14.2033 18.6851C13.3655 18.6828 12.5535 18.5518 11.7873 18.2014C10.7057 17.7071 9.91969 16.9074 9.40329 15.8433C9.29361 15.6156 9.15194 15.4221 8.97295 15.2485C8.813 15.0931 8.65687 14.9331 8.50682 14.7679C8.43904 14.694 8.38419 14.6087 8.34306 14.5173V14.515C8.30345 14.4312 8.39866 14.3497 8.47558 14.4C8.84575 14.6399 9.31189 14.8897 9.88237 15.1015C9.91513 15.1136 9.95169 15.0969 9.96388 15.0641L9.96235 15.0626Z" fill="#292929"/>
<path d="M9.91362 14.959C9.9258 14.9263 9.90905 14.8905 9.8763 14.8783C9.28067 14.6574 8.79701 14.3901 8.42151 14.1387C8.38571 14.1144 8.38724 14.0595 8.42456 14.0389C8.42456 14.0389 8.42456 14.0389 8.42532 14.0389C8.56775 13.962 8.72084 13.9567 8.87622 13.9742C9.1885 14.0085 9.48175 14.1144 9.77499 14.2172C10.2625 14.3878 10.7453 14.5752 11.2549 14.6734C11.3783 14.697 11.5032 14.7168 11.6281 14.7328C11.6533 14.7359 11.6936 14.7184 11.7081 14.697C12.146 14.0298 12.7851 13.6535 13.533 13.4357C14.1766 13.2483 14.8347 13.1943 15.5019 13.2316C15.5095 13.2316 15.5164 13.2346 15.5415 13.24C15.505 13.2598 15.4798 13.2735 15.4547 13.2864C15.0686 13.4913 14.7281 13.7518 14.4638 14.1045C14.2642 14.3718 14.1378 14.6688 14.1088 15.0032C14.1058 15.0337 14.1066 15.0641 14.105 15.1076C14.2764 15.0862 14.4417 15.068 14.6054 15.0451C15.3801 14.9369 16.1356 14.7526 16.8508 14.4289C17.6384 14.0725 18.3193 13.5797 18.806 12.8523C19.2417 12.2003 19.4611 11.4828 19.4039 10.6937C19.394 10.5612 19.3636 10.4294 19.3316 10.2999C19.2752 10.0692 19.1214 9.92064 18.8974 9.86351C18.6461 9.79953 18.3909 9.75383 18.1358 9.7089C17.7968 9.64949 17.4655 9.5756 17.1685 9.38976C16.8219 9.17268 16.5865 8.78576 16.5149 8.38436C16.7069 8.63876 16.9788 8.68065 17.2576 8.67989C17.5478 8.67913 17.8379 8.65399 18.1281 8.6418C18.2127 8.638 18.298 8.638 18.3825 8.64333C18.5113 8.65171 18.6377 8.67608 18.752 8.76139C18.7474 8.69208 18.7367 8.62962 18.7405 8.56793C18.7474 8.42854 18.8037 8.30363 18.8738 8.18557C18.9462 8.06446 19.0223 7.94565 19.0962 7.82454C19.3399 7.42619 19.4374 7.10096 19.26 6.61502C19.346 6.70261 19.4352 6.78792 19.5182 6.87855C19.9295 7.32641 20.0605 7.8512 19.9462 8.44377C19.9013 8.67608 19.8556 8.90762 19.816 9.14146C19.7467 9.55123 19.8107 9.94196 20.0133 10.3045C20.4581 11.1005 20.6173 11.9588 20.5342 12.8568C20.3636 14.7024 19.5159 16.1846 18.0672 17.3286C17.6475 17.6599 17.1806 17.9158 16.6848 18.1169C16.6612 18.1268 16.6368 18.1359 16.6132 18.1466C16.6086 18.1481 16.6056 18.1527 16.5926 18.1649C17.0359 18.7133 17.6201 19.0278 18.2774 19.2464C18.1076 19.2784 17.9385 19.3165 17.7679 19.3424C17.1342 19.4384 16.502 19.4285 15.8744 19.2967C15.3047 19.1764 14.7761 18.9578 14.2955 18.6249C14.2566 18.5983 14.2018 18.5815 14.1546 18.5815C13.3167 18.5792 12.5048 18.4482 11.7386 18.0979C10.657 17.6035 9.87096 16.8038 9.35455 15.7397C9.24487 15.512 9.10321 15.3185 8.92422 15.1449C8.76427 14.9895 8.60812 14.8296 8.45807 14.6643C8.39028 14.5904 8.33545 14.5051 8.29432 14.4137V14.4114C8.25471 14.3276 8.34992 14.2461 8.42685 14.2964C8.79702 14.5363 9.26315 14.7861 9.83364 14.9979C9.86639 15.0101 9.90295 14.9933 9.91514 14.9606L9.91362 14.959Z" fill="url(#paint4_radial_0_625)"/>
<g opacity="0.69">
<path d="M9.91362 14.959C9.9258 14.9263 9.90905 14.8905 9.8763 14.8783C9.28067 14.6574 8.79701 14.3901 8.42151 14.1387C8.38571 14.1144 8.38724 14.0595 8.42456 14.0389C8.42456 14.0389 8.42456 14.0389 8.42532 14.0389C8.56775 13.962 8.72084 13.9567 8.87622 13.9742C9.1885 14.0085 9.48175 14.1144 9.77499 14.2172C10.2625 14.3878 10.7453 14.5752 11.2549 14.6734C11.3783 14.697 11.5032 14.7168 11.6281 14.7328C11.6533 14.7359 11.6936 14.7184 11.7081 14.697C12.146 14.0298 12.7851 13.6535 13.533 13.4357C14.1766 13.2483 14.8347 13.1943 15.5019 13.2316C15.5095 13.2316 15.5164 13.2346 15.5415 13.24C15.505 13.2598 15.4798 13.2735 15.4547 13.2864C15.0686 13.4913 14.7281 13.7518 14.4638 14.1045C14.2642 14.3718 14.1378 14.6688 14.1088 15.0032C14.1058 15.0337 14.1066 15.0641 14.105 15.1076C14.2764 15.0862 14.4417 15.068 14.6054 15.0451C15.3801 14.9369 16.1356 14.7526 16.8508 14.4289C17.6384 14.0725 18.3193 13.5797 18.806 12.8523C19.2417 12.2003 19.4611 11.4828 19.4039 10.6937C19.394 10.5612 19.3636 10.4294 19.3316 10.2999C19.2752 10.0692 19.1214 9.92064 18.8974 9.86351C18.6461 9.79953 18.3909 9.75383 18.1358 9.7089C17.7968 9.64949 17.4655 9.5756 17.1685 9.38976C16.8219 9.17268 16.5865 8.78576 16.5149 8.38436C16.7069 8.63876 16.9788 8.68065 17.2576 8.67989C17.5478 8.67913 17.8379 8.65399 18.1281 8.6418C18.2127 8.638 18.298 8.638 18.3825 8.64333C18.5113 8.65171 18.6377 8.67608 18.752 8.76139C18.7474 8.69208 18.7367 8.62962 18.7405 8.56793C18.7474 8.42854 18.8037 8.30363 18.8738 8.18557C18.9462 8.06446 19.0223 7.94565 19.0962 7.82454C19.3399 7.42619 19.4374 7.10096 19.26 6.61502C19.346 6.70261 19.4352 6.78792 19.5182 6.87855C19.9295 7.32641 20.0605 7.8512 19.9462 8.44377C19.9013 8.67608 19.8556 8.90762 19.816 9.14146C19.7467 9.55123 19.8107 9.94196 20.0133 10.3045C20.4581 11.1005 20.6173 11.9588 20.5342 12.8568C20.3636 14.7024 19.5159 16.1846 18.0672 17.3286C17.6475 17.6599 17.1806 17.9158 16.6848 18.1169C16.6612 18.1268 16.6368 18.1359 16.6132 18.1466C16.6086 18.1481 16.6056 18.1527 16.5926 18.1649C17.0359 18.7133 17.6201 19.0278 18.2774 19.2464C18.1076 19.2784 17.9385 19.3165 17.7679 19.3424C17.1342 19.4384 16.502 19.4285 15.8744 19.2967C15.3047 19.1764 14.7761 18.9578 14.2955 18.6249C14.2566 18.5983 14.2018 18.5815 14.1546 18.5815C13.3167 18.5792 12.5048 18.4482 11.7386 18.0979C10.657 17.6035 9.87096 16.8038 9.35455 15.7397C9.24487 15.512 9.10321 15.3185 8.92422 15.1449C8.76427 14.9895 8.60812 14.8296 8.45807 14.6643C8.39028 14.5904 8.33545 14.5051 8.29432 14.4137V14.4114C8.25471 14.3276 8.34992 14.2461 8.42685 14.2964C8.79702 14.5363 9.26315 14.7861 9.83364 14.9979C9.86639 15.0101 9.90295 14.9933 9.91514 14.9606L9.91362 14.959Z" fill="#4A4A4A"/>
</g>
<path d="M13.5262 11.8111L13.0402 11.3168L12.5886 10.8567H12.5878C12.5551 10.891 11.6898 11.7913 11.689 11.7913C11.5215 11.9657 11.4453 12.2399 11.5359 12.4661C11.5481 12.4981 11.5641 12.5286 11.5832 12.5575C11.6007 12.5842 11.6205 12.6093 11.6418 12.6322C11.6426 12.6329 11.6434 12.6337 11.6449 12.6352C11.7812 12.783 11.9952 12.8622 12.194 12.8492C12.3944 12.8363 12.6328 12.7121 12.6906 12.5057C12.7196 12.4029 12.6944 12.2947 12.6495 12.2011C12.6495 12.2011 12.6236 12.1287 12.5505 12.07C12.4774 12.0106 12.3563 11.9665 12.1643 12.0251L12.0729 12.0563L11.8277 12.1394C11.7873 12.1515 11.7492 12.1256 11.7386 12.0914C11.7317 12.0731 11.7332 12.0533 11.7454 12.0342C11.7622 12.0068 11.865 11.9375 11.9153 11.9032C11.9153 11.9032 11.9678 11.84 12.0135 11.7715C12.0851 11.6633 12.1925 11.5811 12.3205 11.5529C12.4164 11.5323 12.5391 11.5338 12.6853 11.5887C12.7691 11.6199 12.8605 11.6679 12.9603 11.7395C12.9786 11.7524 12.9999 11.7616 13.022 11.7631C13.0547 11.7654 13.1088 11.7753 13.1591 11.8126C13.2139 11.853 13.2642 11.9253 13.2771 12.0571C13.2771 12.0571 13.1804 11.9459 13.025 11.955C13.022 11.955 13.0197 11.955 13.0166 11.955C13.0166 11.955 13.0227 11.9581 13.0334 11.9649C13.0699 11.9908 13.156 12.0731 13.1362 12.2643C13.1362 12.2643 13.1248 12.46 12.9382 12.6421C12.8978 12.6824 12.894 12.7395 12.9176 12.7822C12.9344 12.8134 12.9648 12.8363 13.0052 12.8416H13.0075C13.2588 12.8736 13.4881 12.7197 13.6069 12.5057C13.7356 12.2734 13.7174 12.0061 13.5262 11.8118V11.8111ZM12.5909 11.0746L12.7561 11.2574L12.5947 11.4462L12.5482 11.3967L12.4225 11.2634L12.5878 11.0776L12.5909 11.0746Z" fill="#292929"/>
<path d="M13.0593 13.2034C13.0593 13.2278 13.0402 13.2476 13.0159 13.2476L12.3799 13.2544C12.3555 13.2544 12.3357 13.2354 12.3357 13.211C12.3357 13.1965 12.3433 13.1821 12.3555 13.1737C12.3768 13.16 12.4073 13.1661 12.4309 13.1577C12.453 13.1501 12.4728 13.1379 12.4903 13.1227C12.5269 13.0914 12.5528 13.0488 12.5756 13.0077C12.5863 12.9886 12.5954 12.9696 12.6061 12.9513C12.6404 12.8866 12.6723 12.8195 12.699 12.751C12.7356 12.8607 12.7858 12.962 12.8468 13.0602C12.8704 13.0991 12.9054 13.131 12.9481 13.147C12.9694 13.1554 12.9923 13.1592 13.0151 13.1608C13.038 13.1623 13.0578 13.179 13.0578 13.2034H13.0593Z" fill="#292929"/>
<path d="M13.4782 11.7639L13.0395 11.3175L12.5878 10.8575L12.5406 10.8095C12.5406 10.8095 11.6418 11.7441 11.6411 11.7441C11.4583 11.9345 11.3836 12.2437 11.5169 12.4806C11.5222 12.4905 11.5283 12.5004 11.5352 12.5103C11.5649 12.5552 11.6007 12.5964 11.6426 12.6322C11.6433 12.6329 11.6441 12.6337 11.6456 12.6352C11.782 12.7517 11.9708 12.8134 12.1468 12.8013C12.3471 12.7883 12.5855 12.6642 12.6434 12.4577C12.6723 12.3549 12.6472 12.2468 12.6023 12.1531C12.6023 12.1531 12.5878 12.1135 12.552 12.0693C12.4972 12.0023 12.3905 11.9253 12.2039 11.9558C12.1773 11.9604 12.1483 11.9672 12.1179 11.9764L11.7812 12.0906C11.7667 12.0952 11.7523 12.0944 11.7401 12.0906C11.6982 12.0777 11.6715 12.0282 11.6982 11.9863C11.7149 11.9596 11.8185 11.8895 11.868 11.8553C11.868 11.8553 11.9206 11.7921 11.9663 11.7235C12.0379 11.6153 12.146 11.5331 12.2732 11.5049C12.3844 11.4813 12.5307 11.4866 12.7089 11.5704C12.7729 11.5994 12.8407 11.639 12.913 11.6908C12.9313 11.7045 12.9526 11.7128 12.9747 11.7144C13.0189 11.7174 13.1004 11.7342 13.1598 11.8111C13.1933 11.8545 13.2208 11.9177 13.2291 12.0076C13.2291 12.0076 13.1293 11.8926 12.9694 11.9055C12.9694 11.9055 12.9968 11.9177 13.0258 11.9528C13.0288 11.9558 13.0311 11.9596 13.0341 11.9634C13.0692 12.0099 13.1019 12.0883 13.089 12.2155C13.089 12.2155 13.0775 12.4113 12.8909 12.5933C12.8315 12.6512 12.8513 12.7464 12.9184 12.7807C12.9298 12.7868 12.9427 12.7906 12.9572 12.7929H12.9595C13.2116 12.8249 13.4401 12.671 13.5589 12.457C13.6876 12.2247 13.6694 11.9573 13.4782 11.7631V11.7639ZM12.5467 11.3983L12.3745 11.2155L12.5429 11.0266L12.5886 11.0769L12.7089 11.2086L12.549 11.3952L12.5474 11.3967L12.5467 11.3983Z" fill="url(#paint5_radial_0_625)"/>
<path d="M13.0105 13.1562C13.0105 13.1806 12.9915 13.2004 12.9671 13.2004L12.3311 13.2072C12.3068 13.2072 12.2869 13.1882 12.2869 13.1638C12.2869 13.1493 12.2946 13.1349 12.3068 13.1265C12.3281 13.1128 12.3585 13.1189 12.3822 13.1105C12.4042 13.1029 12.4241 13.0907 12.4416 13.0755C12.4781 13.0442 12.504 13.0016 12.5269 12.9604C12.5375 12.9414 12.5467 12.9224 12.5573 12.9041C12.5916 12.8393 12.6236 12.7723 12.6503 12.7038C12.6868 12.8134 12.7371 12.9147 12.798 13.013C12.8216 13.0518 12.8567 13.0838 12.8993 13.0998C12.9207 13.1082 12.9435 13.112 12.9663 13.1135C12.9892 13.1151 13.009 13.1318 13.009 13.1562H13.0105Z" fill="url(#paint6_radial_0_625)"/>
<g opacity="0.69">
<path d="M13.4782 11.7639L13.0395 11.3175L12.5878 10.8575L12.5406 10.8095C12.5406 10.8095 11.6418 11.7441 11.6411 11.7441C11.4583 11.9345 11.3836 12.2437 11.5169 12.4806C11.5222 12.4905 11.5283 12.5004 11.5352 12.5103C11.5649 12.5552 11.6007 12.5964 11.6426 12.6322C11.6433 12.6329 11.6441 12.6337 11.6456 12.6352C11.782 12.7517 11.9708 12.8134 12.1468 12.8013C12.3471 12.7883 12.5855 12.6642 12.6434 12.4577C12.6723 12.3549 12.6472 12.2468 12.6023 12.1531C12.6023 12.1531 12.5878 12.1135 12.552 12.0693C12.4972 12.0023 12.3905 11.9253 12.2039 11.9558C12.1773 11.9604 12.1483 11.9672 12.1179 11.9764L11.7812 12.0906C11.7667 12.0952 11.7523 12.0944 11.7401 12.0906C11.6982 12.0777 11.6715 12.0282 11.6982 11.9863C11.7149 11.9596 11.8185 11.8895 11.868 11.8553C11.868 11.8553 11.9206 11.7921 11.9663 11.7235C12.0379 11.6153 12.146 11.5331 12.2732 11.5049C12.3844 11.4813 12.5307 11.4866 12.7089 11.5704C12.7729 11.5994 12.8407 11.639 12.913 11.6908C12.9313 11.7045 12.9526 11.7128 12.9747 11.7144C13.0189 11.7174 13.1004 11.7342 13.1598 11.8111C13.1933 11.8545 13.2208 11.9177 13.2291 12.0076C13.2291 12.0076 13.1293 11.8926 12.9694 11.9055C12.9694 11.9055 12.9968 11.9177 13.0258 11.9528C13.0288 11.9558 13.0311 11.9596 13.0341 11.9634C13.0692 12.0099 13.1019 12.0883 13.089 12.2155C13.089 12.2155 13.0775 12.4113 12.8909 12.5933C12.8315 12.6512 12.8513 12.7464 12.9184 12.7807C12.9298 12.7868 12.9427 12.7906 12.9572 12.7929H12.9595C13.2116 12.8249 13.4401 12.671 13.5589 12.457C13.6876 12.2247 13.6694 11.9573 13.4782 11.7631V11.7639ZM12.5467 11.3983L12.3745 11.2155L12.5429 11.0266L12.5886 11.0769L12.7089 11.2086L12.549 11.3952L12.5474 11.3967L12.5467 11.3983Z" fill="#4A4A4A"/>
<path d="M13.0105 13.1562C13.0105 13.1806 12.9915 13.2004 12.9671 13.2004L12.3311 13.2072C12.3068 13.2072 12.2869 13.1882 12.2869 13.1638C12.2869 13.1493 12.2946 13.1349 12.3068 13.1265C12.3281 13.1128 12.3585 13.1189 12.3822 13.1105C12.4042 13.1029 12.4241 13.0907 12.4416 13.0755C12.4781 13.0442 12.504 13.0016 12.5269 12.9604C12.5375 12.9414 12.5467 12.9224 12.5573 12.9041C12.5916 12.8393 12.6236 12.7723 12.6503 12.7038C12.6868 12.8134 12.7371 12.9147 12.798 13.013C12.8216 13.0518 12.8567 13.0838 12.8993 13.0998C12.9207 13.1082 12.9435 13.112 12.9663 13.1135C12.9892 13.1151 13.009 13.1318 13.009 13.1562H13.0105Z" fill="#4A4A4A"/>
</g>
<path d="M20.3248 2.93848L20.1907 3.05502L19.9676 3.24848L19.7985 3.39548L11.3333 10.7318L11.1665 10.8765L7.71773 13.8653L7.5593 14.0032L3.21858 17.7658L3.00989 17.9471L2.78749 18.1398L2.68999 18.2243C1.84455 16.8975 1.25807 15.3886 1.00444 13.7693L1.03795 13.7404L1.29157 13.521L1.53608 13.307L9.27609 6.59066L9.32561 6.54801L10.6867 5.36514H10.6882L11.0157 5.07952H11.0165L12.242 4.01548L12.2999 3.96673L13.1392 3.23782L13.1423 3.23629L15.6154 1.08993L15.8211 0.9117L16.0092 0.748703L16.2072 0.576569C17.7443 1.07927 19.1419 1.8912 20.3255 2.93925L20.3248 2.93848Z" fill="url(#paint7_linear_0_625)"/>
<path d="M24.2694 11.3602L24.261 11.3678L23.785 11.7761L23.5596 11.9695L15.9224 18.5335L15.7426 18.6882L14.9573 19.3638L14.8179 19.4841L14.7646 19.529L14.5422 19.7195L13.9169 20.2572L13.7052 20.4392L11.0789 22.6968L10.8131 22.9238L10.4628 23.2254L10.2411 23.4166C9.19154 23.2048 8.19225 22.8529 7.2653 22.3807L7.43744 22.2329L7.71087 21.9984L7.93328 21.8064L10.4346 19.6562L10.6037 19.5108L11.3783 18.8458L11.5283 18.7156L12.1171 18.2106L12.3585 18.0042L13.3723 17.1328L13.6008 16.9363L17.937 13.2095L18.084 13.0838H18.0855L19.9455 11.4836L20.1359 11.3191L23.1543 8.72561L23.3387 8.56795L23.6875 8.26709L23.7469 8.21606C24.0584 9.21308 24.239 10.268 24.2702 11.3594L24.2694 11.3602Z" fill="url(#paint8_linear_0_625)"/>
<defs>
<linearGradient id="paint0_linear_0_625" x1="8.75587" y1="23.0129" x2="16.3809" y2="0.869054" gradientUnits="userSpaceOnUse">
<stop stop-color="#A7A7A7"/>
<stop offset="0.51" stop-color="#BABABA"/>
<stop offset="1" stop-color="#D2D2D2"/>
</linearGradient>
<linearGradient id="paint1_linear_0_625" x1="12.5604" y1="1.1326" x2="12.5604" y2="22.7966" gradientUnits="userSpaceOnUse">
<stop stop-color="#3B3B3B"/>
<stop offset="0.22" stop-color="#4F4F4F"/>
<stop offset="0.58" stop-color="#787878"/>
<stop offset="1" stop-color="#EAEAEA"/>
</linearGradient>
<linearGradient id="paint2_linear_0_625" x1="9.13366" y1="21.977" x2="16.0343" y2="1.9369" gradientUnits="userSpaceOnUse">
<stop stop-color="#A7A7A7"/>
<stop offset="0.51" stop-color="#BABABA"/>
<stop offset="1" stop-color="#D2D2D2"/>
</linearGradient>
<radialGradient id="paint3_radial_0_625" cx="0" cy="0" r="1" gradientUnits="userSpaceOnUse" gradientTransform="translate(10.4006 11.3724) rotate(19.77) scale(6.2205)">
<stop stop-color="white"/>
<stop offset="0.6" stop-color="#DDDDDD"/>
<stop offset="1" stop-color="#CCCCCC"/>
</radialGradient>
<radialGradient id="paint4_radial_0_625" cx="0" cy="0" r="1" gradientUnits="userSpaceOnUse" gradientTransform="translate(15.0222 12.2144) rotate(19.77) scale(6.17404 6.17404)">
<stop stop-color="white"/>
<stop offset="0.6" stop-color="#DDDDDD"/>
<stop offset="1" stop-color="#CCCCCC"/>
</radialGradient>
<radialGradient id="paint5_radial_0_625" cx="0" cy="0" r="1" gradientUnits="userSpaceOnUse" gradientTransform="translate(12.5451 11.8058) scale(1.04729 1.04729)">
<stop stop-color="white"/>
<stop offset="0.6" stop-color="#DDDDDD"/>
<stop offset="1" stop-color="#CCCCCC"/>
</radialGradient>
<radialGradient id="paint6_radial_0_625" cx="0" cy="0" r="1" gradientUnits="userSpaceOnUse" gradientTransform="translate(12.6495 12.9551) scale(0.31152)">
<stop stop-color="white"/>
<stop offset="0.6" stop-color="#DDDDDD"/>
<stop offset="1" stop-color="#CCCCCC"/>
</radialGradient>
<linearGradient id="paint7_linear_0_625" x1="-2.8907" y1="20.8795" x2="18.02" y2="1.55836" gradientUnits="userSpaceOnUse">
<stop stop-color="white" stop-opacity="0"/>
<stop offset="1" stop-color="white" stop-opacity="0.3"/>
</linearGradient>
<linearGradient id="paint8_linear_0_625" x1="4.08612" y1="27.6636" x2="24.9618" y2="8.37524" gradientUnits="userSpaceOnUse">
<stop stop-color="white" stop-opacity="0"/>
<stop offset="1" stop-color="white" stop-opacity="0.3"/>
</linearGradient>
</defs>
</svg>
