<svg width="44" height="44" viewBox="0 0 44 44" fill="none" xmlns="http://www.w3.org/2000/svg">
<rect x="0.5" y="0.5" width="43" height="43" rx="11.5" stroke="#222C39"/>
<path d="M19.3381 25.9905C22.4946 25.8151 25 23.2003 25 20C25 16.6863 22.3137 14 19 14C15.6863 14 13 16.6863 13 20C13 21.1807 13.3409 22.2817 13.9299 23.21L13.5059 24.482L13.5052 24.4839C13.3428 24.9711 13.2615 25.2149 13.3194 25.3771C13.3698 25.5184 13.4817 25.6299 13.623 25.6803C13.7847 25.7379 14.0267 25.6573 14.5107 25.4959L14.5176 25.4939L15.79 25.0698C16.7183 25.6588 17.8194 25.9998 19.0001 25.9998C19.1135 25.9998 19.2262 25.9967 19.3381 25.9905ZM19.3381 25.9905C19.3382 25.9907 19.3381 25.9902 19.3381 25.9905ZM19.3381 25.9905C20.1591 28.3259 22.3841 30.0002 25.0001 30.0002C26.1808 30.0002 27.2817 29.6588 28.2099 29.0698L29.482 29.4939L29.4845 29.4944C29.9717 29.6567 30.2158 29.7381 30.378 29.6803C30.5194 29.6299 30.6299 29.5184 30.6803 29.3771C30.7382 29.2146 30.6572 28.9706 30.4943 28.4821L30.0703 27.21L30.2123 26.9746C30.7138 26.0979 30.9995 25.0823 30.9995 24C30.9995 20.6863 28.3137 18 25 18L24.7754 18.0041L24.6621 18.0097" stroke="white" stroke-width="2" stroke-linecap="round" stroke-linejoin="round"/>
</svg>
