<svg width="44" height="44" viewBox="0 0 44 44" fill="none" xmlns="http://www.w3.org/2000/svg">
<rect x="0.5" y="0.5" width="43" height="43" rx="11.5" stroke="#222C39"/>
<path d="M25 27V28C25 29.6569 23.6569 31 22 31C20.3431 31 19 29.6569 19 28V27M25 27H19M25 27H28.5905C28.973 27 29.1652 27 29.3201 26.9478C29.616 26.848 29.8475 26.6156 29.9473 26.3198C29.9997 26.1643 29.9997 25.9715 29.9997 25.5859C29.9997 25.4172 29.9995 25.3329 29.9863 25.2524C29.9614 25.1004 29.9024 24.9563 29.8126 24.8312C29.7651 24.7651 29.7048 24.7048 29.5858 24.5858L29.1963 24.1963C29.0706 24.0706 29 23.9001 29 23.7224V20C29 16.134 25.866 13 22 13C18.134 13 15 16.134 15 20V23.7224C15 23.9002 14.9292 24.0706 14.8036 24.1963L14.4141 24.5858C14.2948 24.7051 14.235 24.765 14.1875 24.8312C14.0977 24.9564 14.0381 25.1004 14.0132 25.2524C14 25.3329 14 25.4172 14 25.586C14 25.9715 14 26.1642 14.0525 26.3197C14.1523 26.6156 14.3848 26.848 14.6807 26.9478C14.8356 27 15.027 27 15.4096 27H19" stroke="white" stroke-width="2" stroke-linecap="round" stroke-linejoin="round"/>
</svg>
