<svg width="24" height="24" viewBox="0 0 24 24" fill="none" xmlns="http://www.w3.org/2000/svg">
<path d="M17.8312 9.21163C18.4492 8.59317 18.7895 7.77099 18.7895 6.89653C18.7895 6.02206 18.4491 5.19987 17.8313 4.58141C17.5854 4.33511 17.1864 4.33522 16.9405 4.58141C16.6943 4.8276 16.6943 5.2268 16.9402 5.473C17.3202 5.8533 17.5295 6.35884 17.5295 6.89662C17.5295 7.43421 17.3202 7.93974 16.9405 8.32005L16.7144 8.5462L16.3956 8.22737C16.2042 8.03597 15.9449 7.92847 15.6744 7.92847C15.4038 7.92847 15.1445 8.03597 14.9533 8.22737L14.4177 8.76328C14.3587 8.82256 14.2685 8.838 14.193 8.8018C13.2258 8.33863 12.1591 8.09431 11.055 8.09431C9.11069 8.09431 7.28275 8.85199 5.90784 10.2278C3.06978 13.0681 3.06978 17.6894 5.90784 20.5294C7.28275 21.9055 9.11058 22.6631 11.0549 22.6631C12.9991 22.6631 14.8273 21.9054 16.202 20.5294C18.4382 18.2915 18.9121 14.9477 17.6245 12.2407C17.5883 12.1652 17.6039 12.0753 17.6631 12.016L18.2011 11.4774C18.5992 11.0788 18.5992 10.4327 18.2011 10.0342L17.6051 9.43778L17.8312 9.21163Z" fill="#01FE86"/>
<path d="M15.8372 4.08201C15.9191 4.16407 16.0268 4.2052 16.1343 4.2052C16.2417 4.2052 16.3493 4.16417 16.4315 4.08212C16.5955 3.91801 16.5955 3.65169 16.4315 3.48747L15.7738 2.82926C15.6101 2.66493 15.3438 2.66504 15.1797 2.82926C15.0156 2.99346 15.0156 3.25958 15.1797 3.42389L15.8372 4.08201Z" fill="#01FE86"/>
<path d="M14.6936 5.45273H15.6236C15.8556 5.45273 16.0437 5.2645 16.0437 5.03222C16.0437 4.80004 15.8556 4.61182 15.6236 4.61182H14.6936C14.4614 4.61182 14.2734 4.80015 14.2734 5.03222C14.2734 5.2645 14.4615 5.45273 14.6936 5.45273Z" fill="#01FE86"/>
<path d="M17.3776 3.68421C17.6099 3.68421 17.798 3.49588 17.798 3.2638V2.33311C17.798 2.10083 17.6098 1.9126 17.3776 1.9126C17.1453 1.9126 16.957 2.10083 16.957 2.33311V3.2638C16.9569 3.49588 17.1452 3.68421 17.3776 3.68421Z" fill="#01FE86"/>
<path d="M19.5779 2.81962C19.4139 2.65551 19.1478 2.65551 18.9839 2.81962L18.3262 3.47784C18.1621 3.64195 18.1621 3.90816 18.3262 4.07238C18.4083 4.15444 18.5158 4.19557 18.6233 4.19557C18.7309 4.19557 18.8385 4.15444 18.9204 4.07238L19.5779 3.41415C19.742 3.25004 19.742 2.98383 19.5779 2.81962Z" fill="#01FE86"/>
<path d="M11.0531 10.4026C9.72485 10.4026 8.47612 10.9203 7.53702 11.86C7.37308 12.0242 7.37308 12.2902 7.53702 12.4543C7.70095 12.6184 7.96699 12.6184 8.13103 12.4543C8.91151 11.6734 9.94927 11.2432 11.0531 11.2432C12.1569 11.2432 13.195 11.6734 13.9756 12.4544C14.0575 12.5365 14.1651 12.5777 14.2724 12.5775C14.38 12.5775 14.4875 12.5365 14.5695 12.4544C14.7335 12.2902 14.7335 12.0242 14.5695 11.86C13.6303 10.9203 12.3814 10.4026 11.0531 10.4026Z" fill="#1C2932"/>
</svg>
