<svg width="25" height="24" viewBox="0 0 25 24" fill="none" xmlns="http://www.w3.org/2000/svg">
<path d="M22.1173 5.7455C22.1374 5.7795 22.1582 5.81351 22.1768 5.84751C22.2054 5.89542 22.2332 5.94488 22.261 5.99357L22.2695 6.00748C22.2904 6.04457 22.3097 6.08012 22.329 6.11644C25.3499 11.6381 23.4782 18.6009 18.023 21.8428C17.1227 22.3784 16.1807 22.7787 15.2185 23.0515C14.2224 23.3335 13.2062 23.4781 12.1946 23.4927C10.1776 23.5206 8.1807 23.0275 6.40945 22.0654C5.10652 21.3583 3.92646 20.4 2.94965 19.2068C2.63976 18.8297 2.34996 18.4286 2.08335 18.0051L2.07485 17.9912C2.04548 17.9433 2.01534 17.8962 1.98675 17.8475C1.96588 17.815 1.94579 17.781 1.9257 17.7462C-1.38727 12.1713 0.444251 4.96421 6.02151 1.64969C7.55706 0.737017 9.2147 0.21538 10.8824 0.0554119C12.3978 -0.0929647 13.921 0.0585028 15.3631 0.487404C17.2989 1.06004 19.0895 2.13114 20.5292 3.64427C21.1227 4.27024 21.6582 4.97116 22.1181 5.74473L22.1173 5.7455Z" fill="#A37417"/>
<path d="M22.4179 6.2517C25.7316 11.8274 23.9001 19.0329 18.3221 22.3482C17.244 22.9889 16.1042 23.4379 14.9434 23.7022C13.9635 23.9278 12.9689 24.0229 11.9836 23.9943C9.98286 23.9348 8.02073 23.3645 6.29585 22.3374C5.00838 21.5685 3.8546 20.5453 2.91565 19.2857C2.67067 18.958 2.43961 18.6125 2.22555 18.2524C2.19541 18.2014 2.16527 18.1512 2.13745 18.0994C2.11813 18.067 2.09958 18.036 2.08258 18.0044L2.07408 17.9904C-1.03024 12.4518 0.832968 5.42017 6.3229 2.1582C7.69307 1.34445 9.15983 0.840584 10.6451 0.627292C12.1784 0.4055 13.7278 0.493599 15.2046 0.866859C17.1544 1.36068 18.9782 2.35063 20.4674 3.78803C21.1389 4.43331 21.7433 5.17055 22.261 5.99281L22.2695 6.00672C22.2888 6.03763 22.3074 6.06854 22.3267 6.10023C22.3298 6.10255 22.3314 6.10563 22.3314 6.10795C22.3615 6.15432 22.3901 6.20224 22.4187 6.25015L22.4179 6.2517Z" fill="#6D3C1B"/>
<path d="M22.2371 5.94719C22.2672 5.9982 22.2981 6.04997 22.3259 6.10098C22.329 6.1033 22.3306 6.10639 22.3306 6.1087C25.516 11.6628 23.6652 18.7609 18.1412 22.0437C17.1691 22.621 16.1482 23.0422 15.1073 23.3142C14.1181 23.5746 13.1104 23.6983 12.1096 23.6937C10.0988 23.6882 8.11656 23.1651 6.36308 22.1751C5.06711 21.4456 3.89632 20.4603 2.93419 19.2408C2.6498 18.8807 2.38319 18.5012 2.13744 18.1002C2.10576 18.0515 2.07485 17.9997 2.04471 17.9487C2.02461 17.9155 2.00452 17.8815 1.98597 17.8475C-1.24663 12.2872 0.597262 5.14735 6.14052 1.85293C7.61115 0.978894 9.19306 0.462666 10.7881 0.279514C12.3105 0.104089 13.8445 0.230056 15.3005 0.635773C17.2409 1.17828 19.0446 2.21691 20.5037 3.6999C21.1304 4.33514 21.6938 5.05152 22.176 5.8475C22.1969 5.87996 22.217 5.91396 22.2371 5.94719Z" fill="url(#paint0_linear_0_626)"/>
<path d="M21.4867 6.42093C24.5531 11.5809 22.8568 18.2486 17.6977 21.315C12.5385 24.3815 5.87082 22.6844 2.80437 17.5244C-0.261311 12.366 1.43497 5.69759 6.59338 2.63191C11.7518 -0.433767 18.4202 1.26252 21.4859 6.42093H21.4867Z" fill="url(#paint1_linear_0_626)" stroke="#281401" stroke-width="0.04" stroke-miterlimit="10"/>
<path d="M21.3004 6.52216C24.2997 11.5685 22.6389 18.0909 17.5933 21.0901C12.547 24.0893 6.02537 22.4301 3.02615 17.3838C0.0269359 12.3374 1.68613 5.81583 6.73248 2.81661C11.7788 -0.182607 18.3012 1.47581 21.3004 6.52216Z" fill="url(#paint2_linear_0_626)"/>
<g style="mix-blend-mode:multiply">
<path d="M21.1598 8.79881C21.1142 8.92787 21.0222 9.01829 20.9156 9.09557C20.7008 9.25167 20.4573 9.35213 20.2162 9.45414C19.877 9.59866 19.5346 9.73312 19.2116 9.90855L19.2077 9.91086C19.1745 9.93096 19.1389 9.94719 19.1049 9.96651C18.4736 10.3119 17.8383 10.6612 17.2927 11.1357C16.115 12.1612 15.1127 13.8235 15.3569 15.441C15.4558 16.0963 15.7263 16.6674 16.2108 17.128C16.2927 17.2053 16.387 17.2694 16.4798 17.332C16.6467 17.4441 16.8275 17.4495 16.9991 17.3575C17.1923 17.2555 17.3785 17.138 17.5624 17.0213C17.8074 16.866 18.057 16.723 18.3476 16.6713C18.6876 16.6094 19.0547 16.7169 19.3267 16.9263C19.0624 16.8776 18.8692 17.0051 18.6969 17.1651C18.5161 17.3305 18.3484 17.5113 18.1753 17.6836C18.1243 17.7339 18.0709 17.7826 18.0153 17.8266C17.9295 17.8946 17.8383 17.9502 17.7185 17.9634C17.7611 18.0036 17.802 18.0368 17.8352 18.077C17.9094 18.1689 17.9465 18.2787 17.9697 18.3923C17.9921 18.509 18.013 18.6272 18.0354 18.7439C18.1096 19.1303 18.2332 19.3884 18.6212 19.5917C18.5168 19.5855 18.4133 19.5832 18.3105 19.5739C17.7989 19.5283 17.4187 19.274 17.1529 18.8397C17.0485 18.6689 16.9458 18.4982 16.8383 18.3312C16.649 18.036 16.3863 17.8281 16.0524 17.7176C15.8955 17.6651 15.7441 17.6033 15.6011 17.5329C15.5949 17.6921 15.5779 17.8537 15.5493 18.0175C15.4867 18.3629 15.5447 18.6929 15.7131 19.0013C15.8082 19.1759 15.9094 19.3482 16.0091 19.5206C16.2642 19.9611 16.3051 20.417 16.1011 20.8884C16.0601 20.9835 16.0122 21.0754 15.9682 21.1697C15.9759 20.7315 15.8082 20.4997 15.5037 20.2501C15.4118 20.1744 15.3182 20.1002 15.2263 20.0237C15.1382 19.9487 15.0594 19.8637 15.0138 19.7547C14.9952 19.706 14.9852 19.6543 14.9705 19.5978C14.9017 19.6968 14.809 19.7501 14.7085 19.7934C14.6428 19.8212 14.5748 19.8444 14.506 19.8652C14.2711 19.9356 14.0331 19.9966 13.8013 20.0762C13.5787 20.1519 13.3739 20.2609 13.2904 20.5159C13.2363 20.1767 13.3175 19.8034 13.5339 19.5337C13.7186 19.3034 13.9628 19.1527 14.2162 19.0121C14.4064 18.9062 14.5995 18.7988 14.7812 18.6774C14.9442 18.5708 15.0254 18.4093 15.0068 18.2091C14.996 18.0979 14.9852 17.9843 14.9558 17.8753C14.7835 17.23 14.4102 16.7192 13.8824 16.3189C12.5787 15.3312 10.6405 15.417 9.1753 15.9618C8.49833 16.2146 7.88782 16.6056 7.2835 16.9943C7.25027 17.0152 7.21936 17.0384 7.18458 17.0592L7.18072 17.0615C6.87237 17.2617 6.5903 17.4989 6.30128 17.7269C6.09649 17.89 5.8917 18.0553 5.65213 18.1697C5.53312 18.2261 5.40947 18.264 5.27501 18.2424C5.12586 18.2176 5.0509 18.1295 5.06558 17.9804C5.07331 17.9023 5.09031 17.8196 5.12122 17.7478C5.19773 17.5708 5.2781 17.3954 5.36619 17.223C5.46048 17.0353 5.51921 16.8421 5.54471 16.6295C5.66295 15.6388 6.06789 14.7833 6.79432 14.0894C7.30823 13.5979 7.92028 13.2694 8.58798 13.036C8.62584 13.0237 8.66526 12.9943 8.68921 12.9634C8.97901 12.5646 9.34145 12.2447 9.76185 11.9912C10.2263 11.7122 10.7278 11.5291 11.2603 11.4309C11.4033 11.4039 11.5486 11.3869 11.6938 11.366C11.2302 11.7223 10.8507 12.135 10.649 12.6952C10.6622 12.7007 10.6668 12.703 10.6707 12.7037C10.6915 12.7053 10.7132 12.7068 10.7356 12.7076C11.1869 12.73 11.6297 12.805 12.0563 12.9541C12.4666 13.0971 12.8484 13.2741 13.1977 13.485C13.1776 13.0778 13.2047 12.6581 13.2758 12.2292C13.3492 11.7833 13.4945 11.3583 13.6907 10.9518C13.7 10.9317 13.7101 10.9124 13.7178 10.8931C13.7193 10.8892 13.7193 10.8838 13.7209 10.8699C13.1328 10.7787 12.5887 10.9147 12.054 11.152C12.1413 11.0345 12.2263 10.9147 12.3183 10.8027C12.6591 10.3823 13.0594 10.0291 13.5269 9.75399C13.9496 9.50515 14.404 9.34054 14.8932 9.2764C14.9319 9.27021 14.9767 9.24935 15.0053 9.2223C15.5292 8.74781 16.1104 8.36682 16.7873 8.15044C17.7441 7.84364 18.6892 7.89696 19.6158 8.26713C19.8144 8.34595 20.013 8.38691 20.2224 8.39387C20.4156 8.39928 20.6088 8.41242 20.8005 8.43019C20.8785 8.43792 20.9597 8.46187 21.0315 8.49279C21.1699 8.55075 21.2116 8.65971 21.1614 8.8019L21.1598 8.79881Z" fill="#3A2415"/>
<path d="M21.013 9.02757C20.9674 9.15663 20.8754 9.24705 20.7688 9.32433C20.5539 9.48043 20.3105 9.58089 20.0694 9.6829C19.7301 9.82741 19.3878 9.96188 19.0648 10.1373L19.0609 10.1396C19.0277 10.1597 18.9921 10.1759 18.9581 10.1953C18.3267 10.5407 17.6915 10.89 17.1459 11.3645C15.9682 12.39 14.9658 14.0523 15.2101 15.6697C15.309 16.3251 15.5794 16.8962 16.064 17.3568C16.1459 17.434 16.2402 17.4982 16.3329 17.5608C16.4998 17.6728 16.6807 17.6782 16.8522 17.5863C17.0454 17.4843 17.2317 17.3668 17.4156 17.2501C17.6606 17.0948 17.9102 16.9518 18.2008 16.9C18.5408 16.8382 18.9079 16.9456 19.1799 17.1551C18.9156 17.1064 18.7224 17.2339 18.5501 17.3939C18.3692 17.5592 18.2015 17.7401 18.0284 17.9124C17.9774 17.9626 17.9241 18.0113 17.8685 18.0554C17.7827 18.1234 17.6915 18.179 17.5717 18.1921C17.6142 18.2323 17.6552 18.2656 17.6884 18.3057C17.7626 18.3977 17.7997 18.5074 17.8229 18.621C17.8453 18.7377 17.8661 18.856 17.8886 18.9727C17.9627 19.3591 18.0864 19.6172 18.4743 19.8204C18.37 19.8142 18.2665 19.8119 18.1637 19.8027C17.6521 19.7571 17.2719 19.5028 17.006 19.0685C16.9017 18.8977 16.7989 18.7269 16.6915 18.56C16.5022 18.2648 16.2394 18.0569 15.9056 17.9464C15.7487 17.8938 15.5972 17.832 15.4543 17.7617C15.4481 17.9209 15.4311 18.0824 15.4025 18.2462C15.3399 18.5917 15.3978 18.9217 15.5663 19.23C15.6614 19.4047 15.7626 19.577 15.8623 19.7493C16.1173 20.1898 16.1583 20.6458 15.9543 21.1172C15.9133 21.2122 15.8654 21.3042 15.8213 21.3985C15.8291 20.9603 15.6614 20.7285 15.3569 20.4788C15.2649 20.4031 15.1714 20.3289 15.0794 20.2524C14.9914 20.1775 14.9125 20.0925 14.8669 19.9835C14.8484 19.9348 14.8383 19.883 14.8237 19.8266C14.7549 19.9255 14.6621 19.9788 14.5617 20.0221C14.496 20.0499 14.428 20.0731 14.3592 20.094C14.1243 20.1643 13.8863 20.2254 13.6544 20.305C13.4319 20.3807 13.2271 20.4897 13.1436 20.7447C13.0895 20.4054 13.1706 20.0322 13.387 19.7625C13.5717 19.5322 13.8159 19.3815 14.0694 19.2408C14.2595 19.135 14.4527 19.0275 14.6343 18.9062C14.7974 18.7996 14.8785 18.6381 14.86 18.4379C14.8492 18.3266 14.8383 18.213 14.809 18.104C14.6366 17.4588 14.2634 16.9479 13.7356 16.5476C12.4319 15.56 10.4937 15.6458 9.02847 16.1906C8.3515 16.4433 7.74099 16.8343 7.13666 17.2231C7.10343 17.2439 7.07252 17.2671 7.03775 17.288L7.03388 17.2903C6.72554 17.4904 6.44347 17.7277 6.15444 17.9557C5.94965 18.1187 5.74486 18.2841 5.50529 18.3985C5.38628 18.4549 5.26264 18.4928 5.12817 18.4711C4.97902 18.4464 4.90406 18.3583 4.91874 18.2091C4.92647 18.1311 4.94347 18.0484 4.97438 17.9765C5.05089 17.7996 5.13126 17.6241 5.21936 17.4518C5.31364 17.264 5.37237 17.0708 5.39787 16.8583C5.51611 15.8676 5.92106 15.0121 6.64749 14.3181C7.16139 13.8266 7.77345 13.4982 8.44114 13.2648C8.47901 13.2524 8.51842 13.2231 8.54238 13.1922C8.83218 12.7934 9.19462 12.4735 9.61502 12.22C10.0795 11.941 10.581 11.7579 11.1135 11.6597C11.2564 11.6327 11.4017 11.6157 11.547 11.5948C11.0833 11.9511 10.7039 12.3637 10.5022 12.924C10.5153 12.9294 10.52 12.9317 10.5238 12.9325C10.5447 12.934 10.5663 12.9356 10.5887 12.9364C11.0401 12.9588 11.4829 13.0337 11.9094 13.1829C12.3198 13.3259 12.7016 13.5028 13.0509 13.7138C13.0308 13.3065 13.0578 12.8869 13.1289 12.458C13.2023 12.0121 13.3476 11.5871 13.5439 11.1806C13.5532 11.1605 13.5632 11.1412 13.571 11.1218C13.5725 11.118 13.5725 11.1126 13.574 11.0987C12.9859 11.0075 12.4419 11.1435 11.9071 11.3807C11.9945 11.2633 12.0795 11.1435 12.1714 11.0314C12.5122 10.611 12.9125 10.2579 13.3801 9.98275C13.8028 9.73391 14.2572 9.5693 14.7464 9.50516C14.785 9.49898 14.8298 9.47811 14.8584 9.45106C15.3824 8.97657 15.9635 8.59558 16.6405 8.3792C17.5972 8.0724 18.5423 8.12572 19.4689 8.49589C19.6675 8.57471 19.8661 8.61567 20.0756 8.62263C20.2688 8.62804 20.462 8.64117 20.6536 8.65895C20.7317 8.66668 20.8128 8.69063 20.8847 8.72154C21.023 8.7795 21.0647 8.88847 21.0145 9.03066L21.013 9.02757Z" fill="url(#paint3_radial_0_626)"/>
<path opacity="0.85" d="M21.013 9.02757C20.9674 9.15663 20.8754 9.24705 20.7688 9.32433C20.5539 9.48043 20.3105 9.58089 20.0694 9.6829C19.7301 9.82741 19.3878 9.96188 19.0648 10.1373L19.0609 10.1396C19.0277 10.1597 18.9921 10.1759 18.9581 10.1953C18.3267 10.5407 17.6915 10.89 17.1459 11.3645C15.9682 12.39 14.9658 14.0523 15.2101 15.6697C15.309 16.3251 15.5794 16.8962 16.064 17.3568C16.1459 17.434 16.2402 17.4982 16.3329 17.5608C16.4998 17.6728 16.6807 17.6782 16.8522 17.5863C17.0454 17.4843 17.2317 17.3668 17.4156 17.2501C17.6606 17.0948 17.9102 16.9518 18.2008 16.9C18.5408 16.8382 18.9079 16.9456 19.1799 17.1551C18.9156 17.1064 18.7224 17.2339 18.5501 17.3939C18.3692 17.5592 18.2015 17.7401 18.0284 17.9124C17.9774 17.9626 17.9241 18.0113 17.8685 18.0554C17.7827 18.1234 17.6915 18.179 17.5717 18.1921C17.6142 18.2323 17.6552 18.2656 17.6884 18.3057C17.7626 18.3977 17.7997 18.5074 17.8229 18.621C17.8453 18.7377 17.8661 18.856 17.8886 18.9727C17.9627 19.3591 18.0864 19.6172 18.4743 19.8204C18.37 19.8142 18.2665 19.8119 18.1637 19.8027C17.6521 19.7571 17.2719 19.5028 17.006 19.0685C16.9017 18.8977 16.7989 18.7269 16.6915 18.56C16.5022 18.2648 16.2394 18.0569 15.9056 17.9464C15.7487 17.8938 15.5972 17.832 15.4543 17.7617C15.4481 17.9209 15.4311 18.0824 15.4025 18.2462C15.3399 18.5917 15.3978 18.9217 15.5663 19.23C15.6614 19.4047 15.7626 19.577 15.8623 19.7493C16.1173 20.1898 16.1583 20.6458 15.9543 21.1172C15.9133 21.2122 15.8654 21.3042 15.8213 21.3985C15.8291 20.9603 15.6614 20.7285 15.3569 20.4788C15.2649 20.4031 15.1714 20.3289 15.0794 20.2524C14.9914 20.1775 14.9125 20.0925 14.8669 19.9835C14.8484 19.9348 14.8383 19.883 14.8237 19.8266C14.7549 19.9255 14.6621 19.9788 14.5617 20.0221C14.496 20.0499 14.428 20.0731 14.3592 20.094C14.1243 20.1643 13.8863 20.2254 13.6544 20.305C13.4319 20.3807 13.2271 20.4897 13.1436 20.7447C13.0895 20.4054 13.1706 20.0322 13.387 19.7625C13.5717 19.5322 13.8159 19.3815 14.0694 19.2408C14.2595 19.135 14.4527 19.0275 14.6343 18.9062C14.7974 18.7996 14.8785 18.6381 14.86 18.4379C14.8492 18.3266 14.8383 18.213 14.809 18.104C14.6366 17.4588 14.2634 16.9479 13.7356 16.5476C12.4319 15.56 10.4937 15.6458 9.02847 16.1906C8.3515 16.4433 7.74099 16.8343 7.13666 17.2231C7.10343 17.2439 7.07252 17.2671 7.03775 17.288L7.03388 17.2903C6.72554 17.4904 6.44347 17.7277 6.15444 17.9557C5.94965 18.1187 5.74486 18.2841 5.50529 18.3985C5.38628 18.4549 5.26264 18.4928 5.12817 18.4711C4.97902 18.4464 4.90406 18.3583 4.91874 18.2091C4.92647 18.1311 4.94347 18.0484 4.97438 17.9765C5.05089 17.7996 5.13126 17.6241 5.21936 17.4518C5.31364 17.264 5.37237 17.0708 5.39787 16.8583C5.51611 15.8676 5.92106 15.0121 6.64749 14.3181C7.16139 13.8266 7.77345 13.4982 8.44114 13.2648C8.47901 13.2524 8.51842 13.2231 8.54238 13.1922C8.83218 12.7934 9.19462 12.4735 9.61502 12.22C10.0795 11.941 10.581 11.7579 11.1135 11.6597C11.2564 11.6327 11.4017 11.6157 11.547 11.5948C11.0833 11.9511 10.7039 12.3637 10.5022 12.924C10.5153 12.9294 10.52 12.9317 10.5238 12.9325C10.5447 12.934 10.5663 12.9356 10.5887 12.9364C11.0401 12.9588 11.4829 13.0337 11.9094 13.1829C12.3198 13.3259 12.7016 13.5028 13.0509 13.7138C13.0308 13.3065 13.0578 12.8869 13.1289 12.458C13.2023 12.0121 13.3476 11.5871 13.5439 11.1806C13.5532 11.1605 13.5632 11.1412 13.571 11.1218C13.5725 11.118 13.5725 11.1126 13.574 11.0987C12.9859 11.0075 12.4419 11.1435 11.9071 11.3807C11.9945 11.2633 12.0795 11.1435 12.1714 11.0314C12.5122 10.611 12.9125 10.2579 13.3801 9.98275C13.8028 9.73391 14.2572 9.5693 14.7464 9.50516C14.785 9.49898 14.8298 9.47811 14.8584 9.45106C15.3824 8.97657 15.9635 8.59558 16.6405 8.3792C17.5972 8.0724 18.5423 8.12572 19.4689 8.49589C19.6675 8.57471 19.8661 8.61567 20.0756 8.62263C20.2688 8.62804 20.462 8.64117 20.6536 8.65895C20.7317 8.66668 20.8128 8.69063 20.8847 8.72154C21.023 8.7795 21.0647 8.88847 21.0145 9.03066L21.013 9.02757Z" fill="#724401"/>
<g style="mix-blend-mode:hard-light">
<path opacity="0.85" d="M21.013 9.02757C20.9674 9.15663 20.8754 9.24705 20.7688 9.32433C20.5539 9.48043 20.3105 9.58089 20.0694 9.6829C19.7301 9.82741 19.3878 9.96188 19.0648 10.1373L19.0609 10.1396C19.0277 10.1597 18.9921 10.1759 18.9581 10.1953C18.3267 10.5407 17.6915 10.89 17.1459 11.3645C15.9682 12.39 14.9658 14.0523 15.2101 15.6697C15.309 16.3251 15.5794 16.8962 16.064 17.3568C16.1459 17.434 16.2402 17.4982 16.3329 17.5608C16.4998 17.6728 16.6807 17.6782 16.8522 17.5863C17.0454 17.4843 17.2317 17.3668 17.4156 17.2501C17.6606 17.0948 17.9102 16.9518 18.2008 16.9C18.5408 16.8382 18.9079 16.9456 19.1799 17.1551C18.9156 17.1064 18.7224 17.2339 18.5501 17.3939C18.3692 17.5592 18.2015 17.7401 18.0284 17.9124C17.9774 17.9626 17.9241 18.0113 17.8685 18.0554C17.7827 18.1234 17.6915 18.179 17.5717 18.1921C17.6142 18.2323 17.6552 18.2656 17.6884 18.3057C17.7626 18.3977 17.7997 18.5074 17.8229 18.621C17.8453 18.7377 17.8661 18.856 17.8886 18.9727C17.9627 19.3591 18.0864 19.6172 18.4743 19.8204C18.37 19.8142 18.2665 19.8119 18.1637 19.8027C17.6521 19.7571 17.2719 19.5028 17.006 19.0685C16.9017 18.8977 16.7989 18.7269 16.6915 18.56C16.5022 18.2648 16.2394 18.0569 15.9056 17.9464C15.7487 17.8938 15.5972 17.832 15.4543 17.7617C15.4481 17.9209 15.4311 18.0824 15.4025 18.2462C15.3399 18.5917 15.3978 18.9217 15.5663 19.23C15.6614 19.4047 15.7626 19.577 15.8623 19.7493C16.1173 20.1898 16.1583 20.6458 15.9543 21.1172C15.9133 21.2122 15.8654 21.3042 15.8213 21.3985C15.8291 20.9603 15.6614 20.7285 15.3569 20.4788C15.2649 20.4031 15.1714 20.3289 15.0794 20.2524C14.9914 20.1775 14.9125 20.0925 14.8669 19.9835C14.8484 19.9348 14.8383 19.883 14.8237 19.8266C14.7549 19.9255 14.6621 19.9788 14.5617 20.0221C14.496 20.0499 14.428 20.0731 14.3592 20.094C14.1243 20.1643 13.8863 20.2254 13.6544 20.305C13.4319 20.3807 13.2271 20.4897 13.1436 20.7447C13.0895 20.4054 13.1706 20.0322 13.387 19.7625C13.5717 19.5322 13.8159 19.3815 14.0694 19.2408C14.2595 19.135 14.4527 19.0275 14.6343 18.9062C14.7974 18.7996 14.8785 18.6381 14.86 18.4379C14.8492 18.3266 14.8383 18.213 14.809 18.104C14.6366 17.4588 14.2634 16.9479 13.7356 16.5476C12.4319 15.56 10.4937 15.6458 9.02847 16.1906C8.3515 16.4433 7.74099 16.8343 7.13666 17.2231C7.10343 17.2439 7.07252 17.2671 7.03775 17.288L7.03388 17.2903C6.72554 17.4904 6.44347 17.7277 6.15444 17.9557C5.94965 18.1187 5.74486 18.2841 5.50529 18.3985C5.38628 18.4549 5.26264 18.4928 5.12817 18.4711C4.97902 18.4464 4.90406 18.3583 4.91874 18.2091C4.92647 18.1311 4.94347 18.0484 4.97438 17.9765C5.05089 17.7996 5.13126 17.6241 5.21936 17.4518C5.31364 17.264 5.37237 17.0708 5.39787 16.8583C5.51611 15.8676 5.92106 15.0121 6.64749 14.3181C7.16139 13.8266 7.77345 13.4982 8.44114 13.2648C8.47901 13.2524 8.51842 13.2231 8.54238 13.1922C8.83218 12.7934 9.19462 12.4735 9.61502 12.22C10.0795 11.941 10.581 11.7579 11.1135 11.6597C11.2564 11.6327 11.4017 11.6157 11.547 11.5948C11.0833 11.9511 10.7039 12.3637 10.5022 12.924C10.5153 12.9294 10.52 12.9317 10.5238 12.9325C10.5447 12.934 10.5663 12.9356 10.5887 12.9364C11.0401 12.9588 11.4829 13.0337 11.9094 13.1829C12.3198 13.3259 12.7016 13.5028 13.0509 13.7138C13.0308 13.3065 13.0578 12.8869 13.1289 12.458C13.2023 12.0121 13.3476 11.5871 13.5439 11.1806C13.5532 11.1605 13.5632 11.1412 13.571 11.1218C13.5725 11.118 13.5725 11.1126 13.574 11.0987C12.9859 11.0075 12.4419 11.1435 11.9071 11.3807C11.9945 11.2633 12.0795 11.1435 12.1714 11.0314C12.5122 10.611 12.9125 10.2579 13.3801 9.98275C13.8028 9.73391 14.2572 9.5693 14.7464 9.50516C14.785 9.49898 14.8298 9.47811 14.8584 9.45106C15.3824 8.97657 15.9635 8.59558 16.6405 8.3792C17.5972 8.0724 18.5423 8.12572 19.4689 8.49589C19.6675 8.57471 19.8661 8.61567 20.0756 8.62263C20.2688 8.62804 20.462 8.64117 20.6536 8.65895C20.7317 8.66668 20.8128 8.69063 20.8847 8.72154C21.023 8.7795 21.0647 8.88847 21.0145 9.03066L21.013 9.02757Z" fill="#663703"/>
</g>
<path d="M10.7 4.3529L8.86307 3.84749L7.15365 3.37686V3.37995C7.12197 3.50514 6.30512 6.83744 6.30435 6.83976C6.1467 7.48504 6.34376 8.2416 6.87081 8.65428C6.94345 8.71301 7.02305 8.76324 7.10883 8.80729C7.18688 8.84748 7.26802 8.87916 7.35149 8.90389C7.35458 8.90466 7.35844 8.90544 7.36153 8.90621C7.89013 9.06927 8.50836 8.96262 8.96199 8.6566C9.41949 8.3498 9.81438 7.72538 9.66987 7.15506C9.59723 6.87144 9.38935 6.6481 9.1521 6.48736C9.1521 6.48736 8.99059 6.3498 8.73634 6.31271C8.48054 6.27252 8.13047 6.33435 7.75643 6.73775L7.58178 6.9379H7.58101L7.11347 7.47499C7.03387 7.55923 6.90868 7.54995 6.83603 7.48426C6.79508 7.45026 6.77035 7.40081 6.77344 7.33898C6.77653 7.25088 6.9249 6.94254 6.99677 6.79184C6.99677 6.79184 7.03464 6.5685 7.04932 6.34208C7.07096 5.98504 7.21238 5.64115 7.47668 5.39926C7.67683 5.21766 7.96895 5.05228 8.39322 4.98041C8.6351 4.93868 8.91872 4.92786 9.25488 4.95954C9.3167 4.96495 9.3793 4.95723 9.43417 4.93018C9.51531 4.89077 9.65751 4.83976 9.8283 4.85908C10.0145 4.8784 10.234 4.98273 10.4458 5.27716C10.4458 5.27716 10.0632 5.14579 9.70542 5.38149C9.69924 5.38536 9.69306 5.38999 9.68687 5.39386C9.68687 5.39386 9.70619 5.39231 9.73942 5.39386C9.86307 5.40545 10.1807 5.48118 10.3963 5.9634C10.3963 5.9634 10.6397 6.44409 10.4481 7.13496C10.4071 7.28643 10.4774 7.42708 10.5918 7.4974C10.6745 7.54764 10.7788 7.56154 10.8808 7.51827L10.887 7.51595C11.5277 7.2447 11.8607 6.56232 11.8492 5.88999C11.8345 5.16047 11.4226 4.55074 10.7008 4.3529H10.7ZM7.46045 3.89154L8.10496 4.09788L7.98209 4.76944L7.80357 4.71689L7.32135 4.57315L7.45891 3.90391L7.46122 3.89231L7.46045 3.89154Z" fill="#3A2415"/>
<path d="M11.5107 8.3073C11.5447 8.36449 11.5254 8.4379 11.4689 8.4719L9.9674 9.36448C9.91021 9.39848 9.83679 9.37917 9.80279 9.32275C9.78193 9.28798 9.78038 9.24315 9.79893 9.20683C9.82984 9.14501 9.91176 9.11719 9.95735 9.06464C9.99908 9.01672 10.03 8.96031 10.0509 8.90003C10.0941 8.77484 10.098 8.63883 10.0957 8.50822C10.0941 8.44949 10.0918 8.39076 10.0895 8.33203C10.0825 8.13033 10.0663 7.92708 10.0339 7.72693C10.2719 7.9379 10.5315 8.10792 10.8113 8.25784C10.9218 8.31734 11.0478 8.3444 11.1722 8.3243C11.2348 8.31426 11.2943 8.29262 11.3507 8.26402C11.4071 8.23543 11.4774 8.24857 11.5114 8.30652L11.5107 8.3073Z" fill="#3A2415"/>
<path d="M10.52 4.30655L8.86153 3.84982L7.15443 3.37996L6.97514 3.33051C6.97514 3.33051 6.12739 6.79108 6.12584 6.7934C5.95351 7.49819 6.20466 8.33667 6.84686 8.71611C6.87391 8.73234 6.90173 8.7478 6.93109 8.76248C7.06401 8.82894 7.20621 8.87608 7.35381 8.9039C7.3569 8.90468 7.36077 8.90545 7.36386 8.90622C7.84917 8.99586 8.38163 8.88149 8.78425 8.61101C9.24175 8.30421 9.63665 7.67979 9.49214 7.10947C9.41949 6.82586 9.21161 6.60252 8.97436 6.44178C8.97436 6.44178 8.88626 6.36759 8.73866 6.31349C8.51532 6.23003 8.15597 6.19448 7.75566 6.52447H7.75489C7.69693 6.57238 7.6382 6.62802 7.57869 6.69216L6.9365 7.42786C6.90791 7.458 6.87313 7.47578 6.83836 7.48351C6.72089 7.51133 6.58952 7.42864 6.59493 7.29262C6.59879 7.20607 6.74717 6.89618 6.81826 6.74548C6.81826 6.74548 6.85613 6.52215 6.87081 6.29572C6.89245 5.93869 7.03465 5.5948 7.29817 5.35291C7.53001 5.14194 7.88472 4.95492 8.42491 4.90778C8.61656 4.88846 8.83294 4.89001 9.0756 4.91319C9.13819 4.92015 9.20002 4.91087 9.25489 4.88382C9.36385 4.83127 9.58101 4.75708 9.82907 4.85909C9.96895 4.91551 10.1212 5.02834 10.2657 5.23081C10.2657 5.23081 9.86926 5.09402 9.50759 5.3475C9.50759 5.3475 9.58951 5.33977 9.70543 5.3815C9.71625 5.38537 9.72784 5.39 9.73943 5.39464C9.88549 5.45646 10.0733 5.59789 10.2162 5.91782C10.2162 5.91782 10.4589 6.39927 10.2665 7.09015C10.2062 7.30963 10.3832 7.50746 10.591 7.49819C10.6266 7.49587 10.6637 7.48814 10.7 7.47269L10.7062 7.47037C11.3484 7.19834 11.6799 6.51674 11.6683 5.84441C11.6536 5.11489 11.2417 4.50515 10.52 4.30732V4.30655ZM7.80203 4.72308L7.14129 4.52679L7.2804 3.84596L7.45891 3.90315L7.92645 4.05152L7.80358 4.7169L7.80203 4.72385V4.72308Z" fill="url(#paint4_radial_0_626)"/>
<path d="M11.3306 8.26171C11.3646 8.31889 11.3453 8.3923 11.2889 8.42631L9.78734 9.31889C9.73016 9.35289 9.65674 9.33357 9.62274 9.27715C9.60187 9.24238 9.60033 9.19756 9.61887 9.16123C9.64979 9.09941 9.7317 9.07159 9.7773 9.01904C9.81903 8.97113 9.84994 8.91472 9.87081 8.85444C9.91408 8.72924 9.91795 8.59323 9.91563 8.46263C9.91408 8.4039 9.91176 8.34516 9.90945 8.28643C9.90249 8.08473 9.88626 7.88149 9.8538 7.68134C10.0918 7.89231 10.3515 8.06232 10.6312 8.21225C10.7417 8.27175 10.8677 8.2988 10.9921 8.2787C11.0547 8.26866 11.1142 8.24702 11.1706 8.21842C11.2271 8.18983 11.2974 8.20297 11.3314 8.26093L11.3306 8.26171Z" fill="url(#paint5_radial_0_626)"/>
<g opacity="0.85">
<path d="M10.52 4.30655L8.86153 3.84982L7.15443 3.37996L6.97514 3.33051C6.97514 3.33051 6.12739 6.79108 6.12584 6.7934C5.95351 7.49819 6.20466 8.33667 6.84686 8.71611C6.87391 8.73234 6.90173 8.7478 6.93109 8.76248C7.06401 8.82894 7.20621 8.87608 7.35381 8.9039C7.3569 8.90468 7.36077 8.90545 7.36386 8.90622C7.84917 8.99586 8.38163 8.88149 8.78425 8.61101C9.24175 8.30421 9.63665 7.67979 9.49214 7.10947C9.41949 6.82586 9.21161 6.60252 8.97436 6.44178C8.97436 6.44178 8.88626 6.36759 8.73866 6.31349C8.51532 6.23003 8.15597 6.19448 7.75566 6.52447H7.75489C7.69693 6.57238 7.6382 6.62802 7.57869 6.69216L6.9365 7.42786C6.90791 7.458 6.87313 7.47578 6.83836 7.48351C6.72089 7.51133 6.58952 7.42864 6.59493 7.29262C6.59879 7.20607 6.74717 6.89618 6.81826 6.74548C6.81826 6.74548 6.85613 6.52215 6.87081 6.29572C6.89245 5.93869 7.03465 5.5948 7.29817 5.35291C7.53001 5.14194 7.88472 4.95492 8.42491 4.90778C8.61656 4.88846 8.83294 4.89001 9.0756 4.91319C9.13819 4.92015 9.20002 4.91087 9.25489 4.88382C9.36385 4.83127 9.58101 4.75708 9.82907 4.85909C9.96895 4.91551 10.1212 5.02834 10.2657 5.23081C10.2657 5.23081 9.86926 5.09402 9.50759 5.3475C9.50759 5.3475 9.58951 5.33977 9.70543 5.3815C9.71625 5.38537 9.72784 5.39 9.73943 5.39464C9.88549 5.45646 10.0733 5.59789 10.2162 5.91782C10.2162 5.91782 10.4589 6.39927 10.2665 7.09015C10.2062 7.30963 10.3832 7.50746 10.591 7.49819C10.6266 7.49587 10.6637 7.48814 10.7 7.47269L10.7062 7.47037C11.3484 7.19834 11.6799 6.51674 11.6683 5.84441C11.6536 5.11489 11.2417 4.50515 10.52 4.30732V4.30655ZM7.80203 4.72308L7.14129 4.52679L7.2804 3.84596L7.45891 3.90315L7.92645 4.05152L7.80358 4.7169L7.80203 4.72385V4.72308Z" fill="#724401"/>
<path d="M11.3306 8.26171C11.3646 8.31889 11.3453 8.3923 11.2889 8.42631L9.78734 9.31889C9.73016 9.35289 9.65674 9.33357 9.62274 9.27715C9.60187 9.24238 9.60033 9.19756 9.61887 9.16123C9.64979 9.09941 9.7317 9.07159 9.7773 9.01904C9.81903 8.97113 9.84994 8.91472 9.87081 8.85444C9.91408 8.72924 9.91795 8.59323 9.91563 8.46263C9.91408 8.4039 9.91176 8.34516 9.90945 8.28643C9.90249 8.08473 9.88626 7.88149 9.8538 7.68134C10.0918 7.89231 10.3515 8.06232 10.6312 8.21225C10.7417 8.27175 10.8677 8.2988 10.9921 8.2787C11.0547 8.26866 11.1142 8.24702 11.1706 8.21842C11.2271 8.18983 11.2974 8.20297 11.3314 8.26093L11.3306 8.26171Z" fill="#724401"/>
</g>
<g opacity="0.85">
<path d="M10.52 4.30655L8.86153 3.84982L7.15443 3.37996L6.97514 3.33051C6.97514 3.33051 6.12739 6.79108 6.12584 6.7934C5.95351 7.49819 6.20466 8.33667 6.84686 8.71611C6.87391 8.73234 6.90173 8.7478 6.93109 8.76248C7.06401 8.82894 7.20621 8.87608 7.35381 8.9039C7.3569 8.90468 7.36077 8.90545 7.36386 8.90622C7.84917 8.99586 8.38163 8.88149 8.78425 8.61101C9.24175 8.30421 9.63665 7.67979 9.49214 7.10947C9.41949 6.82586 9.21161 6.60252 8.97436 6.44178C8.97436 6.44178 8.88626 6.36759 8.73866 6.31349C8.51532 6.23003 8.15597 6.19448 7.75566 6.52447H7.75489C7.69693 6.57238 7.6382 6.62802 7.57869 6.69216L6.9365 7.42786C6.90791 7.458 6.87313 7.47578 6.83836 7.48351C6.72089 7.51133 6.58952 7.42864 6.59493 7.29262C6.59879 7.20607 6.74717 6.89618 6.81826 6.74548C6.81826 6.74548 6.85613 6.52215 6.87081 6.29572C6.89245 5.93869 7.03465 5.5948 7.29817 5.35291C7.53001 5.14194 7.88472 4.95492 8.42491 4.90778C8.61656 4.88846 8.83294 4.89001 9.0756 4.91319C9.13819 4.92015 9.20002 4.91087 9.25489 4.88382C9.36385 4.83127 9.58101 4.75708 9.82907 4.85909C9.96895 4.91551 10.1212 5.02834 10.2657 5.23081C10.2657 5.23081 9.86926 5.09402 9.50759 5.3475C9.50759 5.3475 9.58951 5.33977 9.70543 5.3815C9.71625 5.38537 9.72784 5.39 9.73943 5.39464C9.88549 5.45646 10.0733 5.59789 10.2162 5.91782C10.2162 5.91782 10.4589 6.39927 10.2665 7.09015C10.2062 7.30963 10.3832 7.50746 10.591 7.49819C10.6266 7.49587 10.6637 7.48814 10.7 7.47269L10.7062 7.47037C11.3484 7.19834 11.6799 6.51674 11.6683 5.84441C11.6536 5.11489 11.2417 4.50515 10.52 4.30732V4.30655ZM7.80203 4.72308L7.14129 4.52679L7.2804 3.84596L7.45891 3.90315L7.92645 4.05152L7.80358 4.7169L7.80203 4.72385V4.72308Z" fill="#663703"/>
<path d="M11.3306 8.26171C11.3646 8.31889 11.3453 8.3923 11.2889 8.42631L9.78734 9.31889C9.73016 9.35289 9.65674 9.33357 9.62274 9.27715C9.60187 9.24238 9.60033 9.19756 9.61887 9.16123C9.64979 9.09941 9.7317 9.07159 9.7773 9.01904C9.81903 8.97113 9.84994 8.91472 9.87081 8.85444C9.91408 8.72924 9.91795 8.59323 9.91563 8.46263C9.91408 8.4039 9.91176 8.34516 9.90945 8.28643C9.90249 8.08473 9.88626 7.88149 9.8538 7.68134C10.0918 7.89231 10.3515 8.06232 10.6312 8.21225C10.7417 8.27175 10.8677 8.2988 10.9921 8.2787C11.0547 8.26866 11.1142 8.24702 11.1706 8.21842C11.2271 8.18983 11.2974 8.20297 11.3314 8.26093L11.3306 8.26171Z" fill="#663703"/>
</g>
</g>
<path d="M15.3623 0.487393L15.3005 0.635771L15.2039 0.866836L14.9512 1.47657L14.8692 1.67518L10.7472 11.6079L10.6668 11.8042L8.9875 15.8498L8.91022 16.036L6.79663 21.1303L6.69462 21.376L6.40791 22.0661L6.36231 22.1767L6.29585 22.3389C5.00838 21.57 3.8546 20.5468 2.91565 19.2872L2.9342 19.2424L2.94888 19.2076L3.31982 18.3127L3.43806 18.0244L7.20312 8.93481L7.22707 8.87685L7.88936 7.27717H7.89013L8.04855 6.89154H8.04932L8.64515 5.45183L8.67297 5.38459L9.08101 4.39851L9.08332 4.39542L10.2866 1.49048L10.3863 1.2486L10.6428 0.628043L10.7866 0.280285L10.8793 0.0561748C12.3948 -0.0922018 13.9179 0.0592657 15.36 0.488167L15.3623 0.487393Z" fill="url(#paint6_linear_0_626)"/>
<path d="M22.176 5.8475C22.1969 5.87995 22.217 5.91396 22.2371 5.94719C22.2672 5.99819 22.2981 6.04997 22.3259 6.10097C22.329 6.10329 22.3306 6.10638 22.3306 6.1087L22.3283 6.11566L21.8893 7.1597L21.7788 7.42245L18.0369 16.3366L17.9481 16.5468L17.5632 17.4641L17.4952 17.6272L17.4689 17.689L17.3592 17.9487L17.0532 18.679L16.9496 18.9255L15.6629 21.9912L15.5323 22.3003L15.217 23.0522L15.1065 23.315L14.9427 23.7029C13.9627 23.9286 12.9682 24.0236 11.9828 23.995L12.1088 23.6944L12.193 23.4935L12.4689 22.8374L12.5779 22.577L13.8036 19.6573L13.8862 19.4603L14.2665 18.5569L14.3399 18.3799L14.6289 17.6944L14.7471 17.4131L15.2433 16.23L15.3553 15.9634L17.4797 10.9023L17.5524 10.7316H17.5532L18.4643 8.55923L18.5578 8.33667L20.0369 4.8135L20.1273 4.59943L20.4666 3.79032L20.5037 3.70144L20.5276 3.64658C21.1212 4.27254 21.6567 4.97346 22.1165 5.74703C22.1366 5.78103 22.1575 5.81504 22.176 5.84904V5.8475Z" fill="url(#paint7_linear_0_626)"/>
<defs>
<linearGradient id="paint0_linear_0_626" x1="14.5254" y1="23.4553" x2="9.75287" y2="0.450317" gradientUnits="userSpaceOnUse">
<stop stop-color="#D3A150"/>
<stop offset="0.42" stop-color="#DDB264"/>
<stop offset="1" stop-color="#EFD186"/>
</linearGradient>
<linearGradient id="paint1_linear_0_626" x1="6.5927" y1="2.63563" x2="17.695" y2="21.3192" gradientUnits="userSpaceOnUse">
<stop stop-color="#513A01"/>
<stop offset="0.15" stop-color="#65440B"/>
<stop offset="0.46" stop-color="#986024"/>
<stop offset="0.58" stop-color="#AD6B2F"/>
<stop offset="1" stop-color="#FFE6CA"/>
</linearGradient>
<linearGradient id="paint2_linear_0_626" x1="14.3213" y1="22.3675" x2="10.0024" y2="1.54798" gradientUnits="userSpaceOnUse">
<stop stop-color="#D3A150"/>
<stop offset="0.42" stop-color="#DDB264"/>
<stop offset="1" stop-color="#EFD186"/>
</linearGradient>
<radialGradient id="paint3_radial_0_626" cx="0" cy="0" r="1" gradientUnits="userSpaceOnUse" gradientTransform="translate(14.3179 15.8585) rotate(-30.72) scale(7.67694 7.67694)">
<stop stop-color="white"/>
<stop offset="0.6" stop-color="#DDDDDD"/>
<stop offset="1" stop-color="#CCCCCC"/>
</radialGradient>
<radialGradient id="paint4_radial_0_626" cx="0" cy="0" r="1" gradientUnits="userSpaceOnUse" gradientTransform="translate(8.34925 5.70357) rotate(-30.72) scale(2.87943)">
<stop stop-color="white"/>
<stop offset="0.6" stop-color="#DDDDDD"/>
<stop offset="1" stop-color="#CCCCCC"/>
</radialGradient>
<radialGradient id="paint5_radial_0_626" cx="0" cy="0" r="1" gradientUnits="userSpaceOnUse" gradientTransform="translate(10.1853 8.28652) rotate(-30.72) scale(0.853939)">
<stop stop-color="white"/>
<stop offset="0.6" stop-color="#DDDDDD"/>
<stop offset="1" stop-color="#CCCCCC"/>
</radialGradient>
<linearGradient id="paint6_linear_0_626" x1="3.8137" y1="27.8122" x2="11.9902" y2="0.286744" gradientUnits="userSpaceOnUse">
<stop stop-color="white" stop-opacity="0"/>
<stop offset="1" stop-color="white" stop-opacity="0.3"/>
</linearGradient>
<linearGradient id="paint7_linear_0_626" x1="12.5915" y1="30.4197" x2="20.7676" y2="2.89353" gradientUnits="userSpaceOnUse">
<stop stop-color="white" stop-opacity="0"/>
<stop offset="1" stop-color="white" stop-opacity="0.3"/>
</linearGradient>
</defs>
</svg>
